<svg width="385" height="58" viewBox="0 0 385 58" fill="none" xmlns="http://www.w3.org/2000/svg">
<path d="M122.68 38H117.28L108.88 30H96.6V26.04H112.68C113.8 26.04 114.813 25.7733 115.72 25.24C116.627 24.68 117.347 23.9467 117.88 23.04C118.413 22.1067 118.68 21.0933 118.68 20C118.68 18.88 118.413 17.8667 117.88 16.96C117.347 16.0533 116.627 15.3333 115.72 14.8C114.813 14.2667 113.8 14 112.68 14H94.36V38H90.36V10H112.68C114.52 10 116.2 10.4533 117.72 11.36C119.24 12.24 120.44 13.44 121.32 14.96C122.227 16.48 122.68 18.16 122.68 20C122.68 21.6533 122.307 23.1867 121.56 24.6C120.84 26.0133 119.84 27.1867 118.56 28.12C117.307 29.0267 115.88 29.6133 114.28 29.88L122.68 38Z" fill="white"/>
<path d="M131.782 38H127.782V10H131.782V38Z" fill="white"/>
<path d="M169.725 10L155.005 38H150.445L135.725 10H140.285L152.725 33.68L165.165 10H169.725Z" fill="white"/>
<path d="M202.64 38H173.68V10H202.64V14H177.68V34H202.64V38ZM199.24 26H179.68V22H199.24V26Z" fill="white"/>
<path d="M239.907 38H234.507L226.107 30H213.827V26.04H229.907C231.027 26.04 232.04 25.7733 232.947 25.24C233.853 24.68 234.573 23.9467 235.107 23.04C235.64 22.1067 235.907 21.0933 235.907 20C235.907 18.88 235.64 17.8667 235.107 16.96C234.573 16.0533 233.853 15.3333 232.947 14.8C232.04 14.2667 231.027 14 229.907 14H211.587V38H207.587V10H229.907C231.747 10 233.427 10.4533 234.947 11.36C236.467 12.24 237.667 13.44 238.547 14.96C239.453 16.48 239.907 18.16 239.907 20C239.907 21.6533 239.533 23.1867 238.787 24.6C238.067 26.0133 237.067 27.1867 235.787 28.12C234.533 29.0267 233.107 29.6133 231.507 29.88L239.907 38Z" fill="white"/>
<path d="M275.928 30C275.928 31.4667 275.568 32.8133 274.848 34.04C274.128 35.24 273.168 36.2 271.968 36.92C270.768 37.64 269.422 38 267.928 38H243.608V34H267.928C269.048 34 269.995 33.6133 270.768 32.84C271.542 32.04 271.928 31.0933 271.928 30C271.928 28.9067 271.542 27.9733 270.768 27.2C269.995 26.4 269.048 26 267.928 26H251.608C250.142 26 248.795 25.64 247.568 24.92C246.368 24.2 245.408 23.24 244.688 22.04C243.968 20.8133 243.608 19.4667 243.608 18C243.608 16.5333 243.968 15.2 244.688 14C245.408 12.7733 246.368 11.8 247.568 11.08C248.795 10.36 250.142 10 251.608 10H273.928V14H251.608C250.515 14 249.568 14.4 248.768 15.2C247.995 15.9733 247.608 16.9067 247.608 18C247.608 19.0933 247.995 20.04 248.768 20.84C249.568 21.6133 250.515 22 251.608 22H267.928C269.422 22 270.768 22.36 271.968 23.08C273.168 23.8 274.128 24.7733 274.848 26C275.568 27.2 275.928 28.5333 275.928 30Z" fill="white"/>
<path d="M295.794 38H291.794V14H277.634V10H309.954V14H295.794V38Z" fill="white"/>
<path d="M343.919 38H339.919V30H317.559V26H339.919V14H325.559C323.745 14 322.079 14.4533 320.559 15.36C319.039 16.24 317.825 17.44 316.919 18.96C316.039 20.48 315.599 22.16 315.599 24V38H311.599V24C311.599 22.08 311.959 20.28 312.679 18.6C313.399 16.8933 314.399 15.4 315.679 14.12C316.959 12.8133 318.439 11.8 320.119 11.08C321.825 10.36 323.639 10 325.559 10H343.919V38Z" fill="white"/>
<path d="M382.953 38H377.553L369.153 30H356.873V26.04H372.953C374.073 26.04 375.087 25.7733 375.993 25.24C376.9 24.68 377.62 23.9467 378.153 23.04C378.687 22.1067 378.953 21.0933 378.953 20C378.953 18.88 378.687 17.8667 378.153 16.96C377.62 16.0533 376.9 15.3333 375.993 14.8C375.087 14.2667 374.073 14 372.953 14H354.633V38H350.633V10H372.953C374.793 10 376.473 10.4533 377.993 11.36C379.513 12.24 380.713 13.44 381.593 14.96C382.5 16.48 382.953 18.16 382.953 20C382.953 21.6533 382.58 23.1867 381.833 24.6C381.113 26.0133 380.113 27.1867 378.833 28.12C377.58 29.0267 376.153 29.6133 374.553 29.88L382.953 38Z" fill="white"/>
<path d="M100.072 57H92.856C92.0773 57 91.3733 56.856 90.744 56.568C90.1147 56.28 89.5707 55.88 89.112 55.368C88.664 54.856 88.3173 54.264 88.072 53.592C87.8267 52.9093 87.704 52.1787 87.704 51.4C87.704 50.632 87.8267 49.912 88.072 49.24C88.3173 48.5573 88.664 47.96 89.112 47.448C89.5707 46.9253 90.1147 46.52 90.744 46.232C91.3733 45.944 92.0773 45.8 92.856 45.8H100.072V47.4H92.856C92.12 47.4 91.4853 47.5813 90.952 47.944C90.4293 48.296 90.024 48.776 89.736 49.384C89.448 49.992 89.304 50.664 89.304 51.4C89.304 52.136 89.448 52.808 89.736 53.416C90.024 54.0133 90.4293 54.4933 90.952 54.856C91.4853 55.2187 92.12 55.4 92.856 55.4H100.072V57Z" fill="white"/>
<path d="M115.111 51.4C115.111 52.1787 114.988 52.9093 114.743 53.592C114.497 54.264 114.145 54.856 113.687 55.368C113.239 55.88 112.7 56.28 112.071 56.568C111.441 56.856 110.743 57 109.975 57H106.247C105.468 57 104.764 56.856 104.135 56.568C103.505 56.28 102.961 55.88 102.503 55.368C102.055 54.856 101.708 54.264 101.463 53.592C101.217 52.9093 101.095 52.1787 101.095 51.4C101.095 50.632 101.217 49.912 101.463 49.24C101.708 48.5573 102.055 47.96 102.503 47.448C102.961 46.9253 103.505 46.52 104.135 46.232C104.764 45.944 105.468 45.8 106.247 45.8H109.975C110.743 45.8 111.441 45.944 112.071 46.232C112.7 46.52 113.239 46.9253 113.687 47.448C114.145 47.96 114.497 48.5573 114.743 49.24C114.988 49.912 115.111 50.632 115.111 51.4ZM113.511 51.4C113.511 50.664 113.367 49.992 113.079 49.384C112.801 48.776 112.396 48.296 111.863 47.944C111.34 47.5813 110.711 47.4 109.975 47.4H106.247C105.511 47.4 104.876 47.5813 104.343 47.944C103.82 48.296 103.415 48.776 103.127 49.384C102.839 49.992 102.695 50.664 102.695 51.4C102.695 52.136 102.839 52.808 103.127 53.416C103.415 54.0133 103.82 54.4933 104.343 54.856C104.876 55.2187 105.511 55.4 106.247 55.4H109.975C110.711 55.4 111.34 55.2187 111.863 54.856C112.396 54.4933 112.801 54.0133 113.079 53.416C113.367 52.808 113.511 52.136 113.511 51.4Z" fill="white"/>
<path d="M118.757 57H117.157V45.8H117.956C118.735 45.8 119.578 45.9493 120.484 46.248C121.402 46.5467 122.319 46.968 123.237 47.512C124.154 48.056 125.018 48.7067 125.828 49.464C126.65 50.2107 127.354 51.0427 127.94 51.96V45.8H129.54V57H127.94C127.94 56.0187 127.738 55.08 127.333 54.184C126.938 53.2773 126.41 52.4453 125.749 51.688C125.087 50.92 124.351 50.2427 123.54 49.656C122.74 49.0587 121.924 48.5733 121.092 48.2C120.26 47.816 119.482 47.5707 118.757 47.464V57Z" fill="white"/>
<path d="M144.603 53.8C144.603 54.3867 144.459 54.9253 144.171 55.416C143.883 55.896 143.499 56.28 143.019 56.568C142.539 56.856 142 57 141.403 57H131.675V55.4H141.403C141.851 55.4 142.229 55.2453 142.539 54.936C142.848 54.616 143.003 54.2373 143.003 53.8C143.003 53.3627 142.848 52.9893 142.539 52.68C142.229 52.36 141.851 52.2 141.403 52.2H134.875C134.288 52.2 133.749 52.056 133.259 51.768C132.779 51.48 132.395 51.096 132.107 50.616C131.819 50.1253 131.675 49.5867 131.675 49C131.675 48.4133 131.819 47.88 132.107 47.4C132.395 46.9093 132.779 46.52 133.259 46.232C133.749 45.944 134.288 45.8 134.875 45.8H143.803V47.4H134.875C134.437 47.4 134.059 47.56 133.739 47.88C133.429 48.1893 133.275 48.5627 133.275 49C133.275 49.4373 133.429 49.816 133.739 50.136C134.059 50.4453 134.437 50.6 134.875 50.6H141.403C142 50.6 142.539 50.744 143.019 51.032C143.499 51.32 143.883 51.7093 144.171 52.2C144.459 52.68 144.603 53.2133 144.603 53.8Z" fill="white"/>
<path d="M152.549 57H150.949V47.4H145.285V45.8H158.213V47.4H152.549V57Z" fill="white"/>
<path d="M172.647 57H170.487L167.127 53.8H162.215V52.216H168.647C169.095 52.216 169.5 52.1093 169.863 51.896C170.226 51.672 170.514 51.3787 170.727 51.016C170.94 50.6427 171.047 50.2373 171.047 49.8C171.047 49.352 170.94 48.9467 170.727 48.584C170.514 48.2213 170.226 47.9333 169.863 47.72C169.5 47.5067 169.095 47.4 168.647 47.4H161.319V57H159.719V45.8H168.647C169.383 45.8 170.055 45.9813 170.663 46.344C171.271 46.696 171.751 47.176 172.103 47.784C172.466 48.392 172.647 49.064 172.647 49.8C172.647 50.4613 172.498 51.0747 172.199 51.64C171.911 52.2053 171.511 52.6747 170.999 53.048C170.498 53.4107 169.927 53.6453 169.287 53.752L172.647 57Z" fill="white"/>
<path d="M186.688 45.8L186.672 51.4C186.672 52.1787 186.528 52.9093 186.24 53.592C185.952 54.264 185.552 54.856 185.04 55.368C184.528 55.88 183.93 56.28 183.248 56.568C182.576 56.856 181.856 57 181.088 57H179.904C179.136 57 178.41 56.856 177.728 56.568C177.056 56.28 176.464 55.88 175.952 55.368C175.44 54.8453 175.04 54.248 174.752 53.576C174.464 52.8933 174.32 52.168 174.32 51.4V45.8H175.92V51.4C175.92 52.136 176.096 52.808 176.448 53.416C176.81 54.0133 177.296 54.4933 177.904 54.856C178.512 55.2187 179.178 55.4 179.904 55.4H181.088C181.824 55.4 182.49 55.2187 183.088 54.856C183.696 54.4933 184.176 54.0133 184.528 53.416C184.89 52.808 185.072 52.136 185.072 51.4V45.8H186.688Z" fill="white"/>
<path d="M200.713 57H193.497C192.718 57 192.014 56.856 191.385 56.568C190.755 56.28 190.211 55.88 189.753 55.368C189.305 54.856 188.958 54.264 188.713 53.592C188.467 52.9093 188.345 52.1787 188.345 51.4C188.345 50.632 188.467 49.912 188.713 49.24C188.958 48.5573 189.305 47.96 189.753 47.448C190.211 46.9253 190.755 46.52 191.385 46.232C192.014 45.944 192.718 45.8 193.497 45.8H200.713V47.4H193.497C192.761 47.4 192.126 47.5813 191.593 47.944C191.07 48.296 190.665 48.776 190.377 49.384C190.089 49.992 189.945 50.664 189.945 51.4C189.945 52.136 190.089 52.808 190.377 53.416C190.665 54.0133 191.07 54.4933 191.593 54.856C192.126 55.2187 192.761 55.4 193.497 55.4H200.713V57Z" fill="white"/>
<path d="M208.721 57H207.121V47.4H201.457V45.8H214.385V47.4H208.721V57Z" fill="white"/>
<path d="M217.491 57H215.891V45.8H217.491V57Z" fill="white"/>
<path d="M233.548 51.4C233.548 52.1787 233.425 52.9093 233.18 53.592C232.935 54.264 232.583 54.856 232.124 55.368C231.676 55.88 231.137 56.28 230.508 56.568C229.879 56.856 229.18 57 228.412 57H224.684C223.905 57 223.201 56.856 222.572 56.568C221.943 56.28 221.399 55.88 220.94 55.368C220.492 54.856 220.145 54.264 219.9 53.592C219.655 52.9093 219.532 52.1787 219.532 51.4C219.532 50.632 219.655 49.912 219.9 49.24C220.145 48.5573 220.492 47.96 220.94 47.448C221.399 46.9253 221.943 46.52 222.572 46.232C223.201 45.944 223.905 45.8 224.684 45.8H228.412C229.18 45.8 229.879 45.944 230.508 46.232C231.137 46.52 231.676 46.9253 232.124 47.448C232.583 47.96 232.935 48.5573 233.18 49.24C233.425 49.912 233.548 50.632 233.548 51.4ZM231.948 51.4C231.948 50.664 231.804 49.992 231.516 49.384C231.239 48.776 230.833 48.296 230.3 47.944C229.777 47.5813 229.148 47.4 228.412 47.4H224.684C223.948 47.4 223.313 47.5813 222.78 47.944C222.257 48.296 221.852 48.776 221.564 49.384C221.276 49.992 221.132 50.664 221.132 51.4C221.132 52.136 221.276 52.808 221.564 53.416C221.852 54.0133 222.257 54.4933 222.78 54.856C223.313 55.2187 223.948 55.4 224.684 55.4H228.412C229.148 55.4 229.777 55.2187 230.3 54.856C230.833 54.4933 231.239 54.0133 231.516 53.416C231.804 52.808 231.948 52.136 231.948 51.4Z" fill="white"/>
<path d="M237.194 57H235.594V45.8H236.394C237.173 45.8 238.015 45.9493 238.922 46.248C239.839 46.5467 240.757 46.968 241.674 47.512C242.591 48.056 243.455 48.7067 244.266 49.464C245.087 50.2107 245.791 51.0427 246.378 51.96V45.8H247.978V57H246.378C246.378 56.0187 246.175 55.08 245.77 54.184C245.375 53.2773 244.847 52.4453 244.186 51.688C243.525 50.92 242.789 50.2427 241.978 49.656C241.178 49.0587 240.362 48.5733 239.53 48.2C238.698 47.816 237.919 47.5707 237.194 47.464V57Z" fill="white"/>
<path d="M37 56L2 21H14L49 56H37Z" fill="white"/>
<path d="M18 55.5L3.5 41H14L28.5 55.5H18Z" fill="white"/>
<path d="M57.5 44L69.5 56H58.5L3 0.5H15.5L52 37C52 37 65 30 63.5 24.5C62 19 59.1232 15.9905 41 16.5L27.5 3C27.5 3 34.4188 3.02173 57.5 3C80.5812 2.97827 91.7436 41.3334 57.5 44Z" fill="white"/>
<path d="M122.68 38V38.5H123.917L123.028 37.6405L122.68 38ZM117.28 38L116.935 38.3621L117.08 38.5H117.28V38ZM108.88 30L109.225 29.6379L109.08 29.5H108.88V30ZM96.6 30H96.1V30.5H96.6V30ZM96.6 26.04V25.54H96.1V26.04H96.6ZM115.72 25.24L115.974 25.6711L115.983 25.6654L115.72 25.24ZM117.88 23.04L118.311 23.2935L118.314 23.2881L117.88 23.04ZM117.88 16.96L117.449 17.2135L117.449 17.2135L117.88 16.96ZM115.72 14.8L115.974 14.369L115.974 14.369L115.72 14.8ZM94.36 14V13.5H93.86V14H94.36ZM94.36 38V38.5H94.86V38H94.36ZM90.36 38H89.86V38.5H90.36V38ZM90.36 10V9.5H89.86V10H90.36ZM117.72 11.36L117.464 11.7894L117.469 11.7927L117.72 11.36ZM121.32 14.96L120.887 15.2105L120.891 15.2161L121.32 14.96ZM121.56 24.6L121.118 24.3664L121.114 24.373L121.56 24.6ZM118.56 28.12L118.853 28.5251L118.855 28.524L118.56 28.12ZM114.28 29.88L114.198 29.3868L113.219 29.5499L113.932 30.2395L114.28 29.88ZM131.782 38V38.5H132.282V38H131.782ZM127.782 38H127.282V38.5H127.782V38ZM127.782 10V9.5H127.282V10H127.782ZM131.782 10H132.282V9.5H131.782V10ZM169.725 10L170.168 10.2327L170.553 9.5H169.725V10ZM155.005 38V38.5H155.307L155.448 38.2327L155.005 38ZM150.445 38L150.002 38.2327L150.143 38.5H150.445V38ZM135.725 10V9.5H134.897L135.282 10.2327L135.725 10ZM140.285 10L140.728 9.76746L140.587 9.5H140.285V10ZM152.725 33.68L152.282 33.9125L152.725 34.7551L153.168 33.9125L152.725 33.68ZM165.165 10V9.5H164.863L164.722 9.76746L165.165 10ZM202.64 38V38.5H203.14V38H202.64ZM173.68 38H173.18V38.5H173.68V38ZM173.68 10V9.5H173.18V10H173.68ZM202.64 10H203.14V9.5H202.64V10ZM202.64 14V14.5H203.14V14H202.64ZM177.68 14V13.5H177.18V14H177.68ZM177.68 34H177.18V34.5H177.68V34ZM202.64 34H203.14V33.5H202.64V34ZM199.24 26V26.5H199.74V26H199.24ZM179.68 26H179.18V26.5H179.68V26ZM179.68 22V21.5H179.18V22H179.68ZM199.24 22H199.74V21.5H199.24V22ZM239.907 38V38.5H241.143L240.254 37.6405L239.907 38ZM234.507 38L234.162 38.3621L234.307 38.5H234.507V38ZM226.107 30L226.451 29.6379L226.307 29.5H226.107V30ZM213.827 30H213.327V30.5H213.827V30ZM213.827 26.04V25.54H213.327V26.04H213.827ZM232.947 25.24L233.2 25.6711L233.209 25.6654L232.947 25.24ZM235.107 23.04L235.538 23.2935L235.541 23.2881L235.107 23.04ZM235.107 16.96L234.676 17.2135L234.676 17.2135L235.107 16.96ZM232.947 14.8L233.2 14.369L233.2 14.369L232.947 14.8ZM211.587 14V13.5H211.087V14H211.587ZM211.587 38V38.5H212.087V38H211.587ZM207.587 38H207.087V38.5H207.587V38ZM207.587 10V9.5H207.087V10H207.587ZM234.947 11.36L234.69 11.7894L234.696 11.7927L234.947 11.36ZM238.547 14.96L238.114 15.2105L238.117 15.2161L238.547 14.96ZM238.787 24.6L238.344 24.3664L238.341 24.373L238.787 24.6ZM235.787 28.12L236.08 28.5251L236.081 28.524L235.787 28.12ZM231.507 29.88L231.424 29.3868L230.446 29.5499L231.159 30.2395L231.507 29.88ZM274.848 34.04L275.277 34.2973L275.28 34.2931L274.848 34.04ZM271.968 36.92L271.711 36.4913L271.711 36.4913L271.968 36.92ZM243.608 38H243.108V38.5H243.608V38ZM243.608 34V33.5H243.108V34H243.608ZM270.768 32.84L271.122 33.1936L271.128 33.1875L270.768 32.84ZM270.768 27.2L270.409 27.5476L270.415 27.5536L270.768 27.2ZM247.568 24.92L247.311 25.3488L247.315 25.3512L247.568 24.92ZM244.688 22.04L244.257 22.2931L244.26 22.2972L244.688 22.04ZM244.688 14L245.117 14.2573L245.12 14.2531L244.688 14ZM247.568 11.08L247.315 10.6488L247.311 10.6513L247.568 11.08ZM273.928 10H274.428V9.5H273.928V10ZM273.928 14V14.5H274.428V14H273.928ZM248.768 15.2L248.415 14.8464L248.415 14.8464L248.768 15.2ZM248.768 20.84L248.409 21.1875L248.415 21.1936L248.421 21.1995L248.768 20.84ZM271.968 23.08L271.711 23.5087L271.711 23.5087L271.968 23.08ZM274.848 26L274.417 26.2531L274.42 26.2572L274.848 26ZM295.794 38V38.5H296.294V38H295.794ZM291.794 38H291.294V38.5H291.794V38ZM291.794 14H292.294V13.5H291.794V14ZM277.634 14H277.134V14.5H277.634V14ZM277.634 10V9.5H277.134V10H277.634ZM309.954 10H310.454V9.5H309.954V10ZM309.954 14V14.5H310.454V14H309.954ZM295.794 14V13.5H295.294V14H295.794ZM343.919 38V38.5H344.419V38H343.919ZM339.919 38H339.419V38.5H339.919V38ZM339.919 30H340.419V29.5H339.919V30ZM317.559 30H317.059V30.5H317.559V30ZM317.559 26V25.5H317.059V26H317.559ZM339.919 26V26.5H340.419V26H339.919ZM339.919 14H340.419V13.5H339.919V14ZM320.559 15.36L320.809 15.7927L320.815 15.7894L320.559 15.36ZM316.919 18.96L316.489 18.7038L316.486 18.7095L316.919 18.96ZM315.599 38V38.5H316.099V38H315.599ZM311.599 38H311.099V38.5H311.599V38ZM312.679 18.6L313.138 18.797L313.139 18.7943L312.679 18.6ZM315.679 14.12L316.032 14.4736L316.036 14.4699L315.679 14.12ZM320.119 11.08L319.924 10.6193L319.922 10.6204L320.119 11.08ZM343.919 10H344.419V9.5H343.919V10ZM382.953 38V38.5H384.19L383.301 37.6405L382.953 38ZM377.553 38L377.209 38.3621L377.353 38.5H377.553V38ZM369.153 30L369.498 29.6379L369.353 29.5H369.153V30ZM356.873 30H356.373V30.5H356.873V30ZM356.873 26.04V25.54H356.373V26.04H356.873ZM375.993 25.24L376.247 25.6711L376.256 25.6654L375.993 25.24ZM378.153 23.04L378.584 23.2935L378.588 23.2881L378.153 23.04ZM378.153 16.96L377.722 17.2135L377.722 17.2135L378.153 16.96ZM375.993 14.8L376.247 14.369L376.247 14.369L375.993 14.8ZM354.633 14V13.5H354.133V14H354.633ZM354.633 38V38.5H355.133V38H354.633ZM350.633 38H350.133V38.5H350.633V38ZM350.633 10V9.5H350.133V10H350.633ZM377.993 11.36L377.737 11.7894L377.743 11.7927L377.993 11.36ZM381.593 14.96L381.161 15.2105L381.164 15.2161L381.593 14.96ZM381.833 24.6L381.391 24.3664L381.388 24.373L381.833 24.6ZM378.833 28.12L379.126 28.5251L379.128 28.524L378.833 28.12ZM374.553 29.88L374.471 29.3868L373.493 29.5499L374.206 30.2395L374.553 29.88ZM100.072 57V57.5H100.572V57H100.072ZM89.112 55.368L88.7357 55.6973L88.7396 55.7016L89.112 55.368ZM88.072 53.592L87.6015 53.7611L87.6023 53.7635L88.072 53.592ZM88.072 49.24L88.5417 49.4115L88.5425 49.4091L88.072 49.24ZM89.112 47.448L88.7362 47.1182L88.7357 47.1187L89.112 47.448ZM100.072 45.8H100.572V45.3H100.072V45.8ZM100.072 47.4V47.9H100.572V47.4H100.072ZM90.952 47.944L91.2313 48.3587L91.2332 48.3575L90.952 47.944ZM89.736 49.384L90.1879 49.598L90.1879 49.598L89.736 49.384ZM89.736 53.416L89.2841 53.63L89.2856 53.6332L89.736 53.416ZM90.952 54.856L90.6669 55.2668L90.6708 55.2695L90.952 54.856ZM100.072 55.4H100.572V54.9H100.072V55.4ZM114.743 53.592L115.212 53.7635L115.213 53.7611L114.743 53.592ZM113.687 55.368L113.314 55.0344L113.31 55.0387L113.687 55.368ZM102.503 55.368L102.126 55.6973L102.13 55.7016L102.503 55.368ZM101.463 53.592L100.992 53.7611L100.993 53.7635L101.463 53.592ZM101.463 49.24L101.932 49.4115L101.933 49.4091L101.463 49.24ZM102.503 47.448L102.127 47.1182L102.126 47.1187L102.503 47.448ZM113.687 47.448L113.307 47.7735L113.314 47.7816L113.687 47.448ZM114.743 49.24L114.272 49.4091L114.273 49.4115L114.743 49.24ZM113.079 49.384L112.624 49.5915L112.627 49.598L113.079 49.384ZM111.863 47.944L111.578 48.3549L111.587 48.3613L111.863 47.944ZM104.343 47.944L104.622 48.3587L104.624 48.3575L104.343 47.944ZM103.127 49.384L103.578 49.598L103.578 49.598L103.127 49.384ZM103.127 53.416L102.675 53.63L102.676 53.6332L103.127 53.416ZM104.343 54.856L104.058 55.2668L104.061 55.2695L104.343 54.856ZM111.863 54.856L111.581 54.4425L111.578 54.4452L111.863 54.856ZM113.079 53.416L112.627 53.202L112.625 53.2054L113.079 53.416ZM118.757 57V57.5H119.257V57H118.757ZM117.157 57H116.657V57.5H117.157V57ZM117.157 45.8V45.3H116.657V45.8H117.157ZM120.484 46.248L120.328 46.7229L120.33 46.7234L120.484 46.248ZM125.828 49.464L125.487 49.8294L125.492 49.834L125.828 49.464ZM127.94 51.96L127.519 52.2294L128.44 53.6698V51.96H127.94ZM127.94 45.8V45.3H127.44V45.8H127.94ZM129.54 45.8H130.04V45.3H129.54V45.8ZM129.54 57V57.5H130.04V57H129.54ZM127.94 57H127.44V57.5H127.94V57ZM127.333 54.184L126.874 54.3836L126.877 54.3901L127.333 54.184ZM125.749 51.688L125.37 52.0143L125.372 52.0169L125.749 51.688ZM123.54 49.656L123.241 50.0567L123.247 50.0611L123.54 49.656ZM121.092 48.2L120.883 48.654L120.888 48.6562L121.092 48.2ZM118.757 47.464L118.829 46.9693L118.257 46.8851V47.464H118.757ZM144.171 55.416L144.599 55.6733L144.602 55.6691L144.171 55.416ZM143.019 56.568L142.761 56.1393L142.761 56.1393L143.019 56.568ZM131.675 57H131.175V57.5H131.675V57ZM131.675 55.4V54.9H131.175V55.4H131.675ZM142.539 54.936L142.892 55.2896L142.898 55.2835L142.539 54.936ZM142.539 52.68L142.179 53.0276L142.185 53.0336L142.539 52.68ZM133.259 51.768L133.001 52.1968L133.006 52.1992L133.259 51.768ZM132.107 50.616L131.675 50.8691L131.678 50.8732L132.107 50.616ZM132.107 47.4L132.535 47.6573L132.538 47.6531L132.107 47.4ZM133.259 46.232L133.006 45.8008L133.001 45.8033L133.259 46.232ZM143.803 45.8H144.303V45.3H143.803V45.8ZM143.803 47.4V47.9H144.303V47.4H143.803ZM133.739 47.88L133.385 47.5264L133.385 47.5264L133.739 47.88ZM133.739 50.136L133.379 50.4835L133.385 50.4896L133.391 50.4955L133.739 50.136ZM143.019 51.032L142.761 51.4607L142.761 51.4607L143.019 51.032ZM144.171 52.2L143.739 52.4531L143.742 52.4572L144.171 52.2ZM152.549 57V57.5H153.049V57H152.549ZM150.949 57H150.449V57.5H150.949V57ZM150.949 47.4H151.449V46.9H150.949V47.4ZM145.285 47.4H144.785V47.9H145.285V47.4ZM145.285 45.8V45.3H144.785V45.8H145.285ZM158.213 45.8H158.713V45.3H158.213V45.8ZM158.213 47.4V47.9H158.713V47.4H158.213ZM152.549 47.4V46.9H152.049V47.4H152.549ZM172.647 57V57.5H173.884L172.995 56.6405L172.647 57ZM170.487 57L170.142 57.3621L170.287 57.5H170.487V57ZM167.127 53.8L167.472 53.4379L167.327 53.3H167.127V53.8ZM162.215 53.8H161.715V54.3H162.215V53.8ZM162.215 52.216V51.716H161.715V52.216H162.215ZM169.863 51.896L170.117 52.3271L170.126 52.3214L169.863 51.896ZM170.727 51.016L171.158 51.2695L171.161 51.2641L170.727 51.016ZM170.727 48.584L170.296 48.8375L170.296 48.8375L170.727 48.584ZM169.863 47.72L170.117 47.289L170.117 47.289L169.863 47.72ZM161.319 47.4V46.9H160.819V47.4H161.319ZM161.319 57V57.5H161.819V57H161.319ZM159.719 57H159.219V57.5H159.719V57ZM159.719 45.8V45.3H159.219V45.8H159.719ZM170.663 46.344L170.407 46.7734L170.412 46.7767L170.663 46.344ZM172.103 47.784L171.67 48.0345L171.674 48.0401L172.103 47.784ZM172.199 51.64L171.757 51.4064L171.753 51.413L172.199 51.64ZM170.999 53.048L171.292 53.4531L171.294 53.452L170.999 53.048ZM169.287 53.752L169.205 53.2588L168.226 53.4219L168.939 54.1115L169.287 53.752ZM186.688 45.8L187.188 45.8014L187.189 45.3H186.688V45.8ZM186.672 51.4L186.172 51.3986V51.4H186.672ZM186.24 53.592L186.699 53.789L186.7 53.7863L186.24 53.592ZM185.04 55.368L184.686 55.0144L184.686 55.0144L185.04 55.368ZM183.248 56.568L183.053 56.1073L183.051 56.1084L183.248 56.568ZM177.728 56.568L177.531 57.0276L177.533 57.0287L177.728 56.568ZM175.952 55.368L175.595 55.7179L175.598 55.7216L175.952 55.368ZM174.752 53.576L174.291 53.7704L174.292 53.773L174.752 53.576ZM174.32 45.8V45.3H173.82V45.8H174.32ZM175.92 45.8H176.42V45.3H175.92V45.8ZM176.448 53.416L176.015 53.6666L176.02 53.6755L176.448 53.416ZM177.904 54.856L178.16 54.4266L178.16 54.4266L177.904 54.856ZM183.088 54.856L182.832 54.4266L182.828 54.4286L183.088 54.856ZM184.528 53.416L184.098 53.1599L184.097 53.1622L184.528 53.416ZM185.072 45.8V45.3H184.572V45.8H185.072ZM200.713 57V57.5H201.213V57H200.713ZM189.753 55.368L189.376 55.6973L189.38 55.7016L189.753 55.368ZM188.713 53.592L188.242 53.7611L188.243 53.7635L188.713 53.592ZM188.713 49.24L189.182 49.4115L189.183 49.4091L188.713 49.24ZM189.753 47.448L189.377 47.1182L189.376 47.1187L189.753 47.448ZM200.713 45.8H201.213V45.3H200.713V45.8ZM200.713 47.4V47.9H201.213V47.4H200.713ZM191.593 47.944L191.872 48.3587L191.874 48.3575L191.593 47.944ZM190.377 49.384L190.828 49.598L190.828 49.598L190.377 49.384ZM190.377 53.416L189.925 53.63L189.926 53.6332L190.377 53.416ZM191.593 54.856L191.308 55.2668L191.311 55.2695L191.593 54.856ZM200.713 55.4H201.213V54.9H200.713V55.4ZM208.721 57V57.5H209.221V57H208.721ZM207.121 57H206.621V57.5H207.121V57ZM207.121 47.4H207.621V46.9H207.121V47.4ZM201.457 47.4H200.957V47.9H201.457V47.4ZM201.457 45.8V45.3H200.957V45.8H201.457ZM214.385 45.8H214.885V45.3H214.385V45.8ZM214.385 47.4V47.9H214.885V47.4H214.385ZM208.721 47.4V46.9H208.221V47.4H208.721ZM217.491 57V57.5H217.991V57H217.491ZM215.891 57H215.391V57.5H215.891V57ZM215.891 45.8V45.3H215.391V45.8H215.891ZM217.491 45.8H217.991V45.3H217.491V45.8ZM233.18 53.592L233.65 53.7635L233.651 53.7611L233.18 53.592ZM232.124 55.368L231.752 55.0344L231.748 55.0387L232.124 55.368ZM220.94 55.368L220.564 55.6973L220.568 55.7016L220.94 55.368ZM219.9 53.592L219.43 53.7611L219.43 53.7635L219.9 53.592ZM219.9 49.24L220.37 49.4115L220.371 49.4091L219.9 49.24ZM220.94 47.448L220.564 47.1182L220.564 47.1187L220.94 47.448ZM232.124 47.448L231.744 47.7735L231.752 47.7816L232.124 47.448ZM233.18 49.24L232.71 49.4091L232.71 49.4115L233.18 49.24ZM231.516 49.384L231.061 49.5915L231.064 49.598L231.516 49.384ZM230.3 47.944L230.015 48.3549L230.025 48.3613L230.3 47.944ZM222.78 47.944L223.059 48.3587L223.061 48.3575L222.78 47.944ZM221.564 49.384L222.016 49.598L222.016 49.598L221.564 49.384ZM221.564 53.416L221.112 53.63L221.114 53.6332L221.564 53.416ZM222.78 54.856L222.495 55.2668L222.499 55.2695L222.78 54.856ZM230.3 54.856L230.019 54.4425L230.015 54.4452L230.3 54.856ZM231.516 53.416L231.064 53.202L231.063 53.2054L231.516 53.416ZM237.194 57V57.5H237.694V57H237.194ZM235.594 57H235.094V57.5H235.594V57ZM235.594 45.8V45.3H235.094V45.8H235.594ZM238.922 46.248L238.766 46.7229L238.767 46.7234L238.922 46.248ZM244.266 49.464L243.925 49.8294L243.93 49.834L244.266 49.464ZM246.378 51.96L245.957 52.2294L246.878 53.6698V51.96H246.378ZM246.378 45.8V45.3H245.878V45.8H246.378ZM247.978 45.8H248.478V45.3H247.978V45.8ZM247.978 57V57.5H248.478V57H247.978ZM246.378 57H245.878V57.5H246.378V57ZM245.77 54.184L245.312 54.3836L245.314 54.3901L245.77 54.184ZM244.186 51.688L243.807 52.0143L243.809 52.0169L244.186 51.688ZM241.978 49.656L241.679 50.0567L241.685 50.0611L241.978 49.656ZM239.53 48.2L239.32 48.654L239.325 48.6562L239.53 48.2ZM237.194 47.464L237.267 46.9693L236.694 46.8851V47.464H237.194ZM2 21V20.5H0.792893L1.64645 21.3536L2 21ZM37 56L36.6464 56.3536L36.7929 56.5H37V56ZM49 56V56.5H50.2071L49.3536 55.6464L49 56ZM14 21L14.3536 20.6464L14.2071 20.5H14V21ZM3.5 41V40.5H2.29289L3.14645 41.3536L3.5 41ZM18 55.5L17.6464 55.8536L17.7929 56H18V55.5ZM28.5 55.5V56H29.7071L28.8536 55.1464L28.5 55.5ZM14 41L14.3536 40.6464L14.2071 40.5H14V41ZM69.5 56V56.5L69.8536 55.6465L69.5 56ZM57.5 44L57.4612 43.5015L57.1464 44.3536L57.5 44ZM52 37L51.6464 37.3536L52.2371 37.4403L52 37ZM15.5 0.5L15.8536 0.146447L15.5 0V0.5ZM3 0.5V0L2.64645 0.853553L3 0.5ZM41 16.5L40.6464 16.8536L41.0141 16.9998L41 16.5ZM27.5 3L27.5016 2.5L27.1464 3.35355L27.5 3ZM57.5 3L57.5005 3.5L57.5 3ZM122.68 38V37.5H117.28V38V38.5H122.68V38ZM117.28 38L117.625 37.6379L109.225 29.6379L108.88 30L108.535 30.3621L116.935 38.3621L117.28 38ZM108.88 30V29.5H96.6V30V30.5H108.88V30ZM96.6 30H97.1V26.04H96.6H96.1V30H96.6ZM96.6 26.04V26.54H112.68V26.04V25.54H96.6V26.04ZM112.68 26.04V26.54C113.883 26.54 114.985 26.2524 115.974 25.671L115.72 25.24L115.466 24.809C114.642 25.2942 113.717 25.54 112.68 25.54V26.04ZM115.72 25.24L115.983 25.6654C116.958 25.0632 117.736 24.2713 118.311 23.2935L117.88 23.04L117.449 22.7865C116.958 23.6221 116.296 24.2968 115.457 24.8146L115.72 25.24ZM117.88 23.04L118.314 23.2881C118.891 22.2778 119.18 21.1788 119.18 20H118.68H118.18C118.18 21.0079 117.935 21.9355 117.446 22.7919L117.88 23.04ZM118.68 20H119.18C119.18 18.7968 118.892 17.695 118.311 16.7065L117.88 16.96L117.449 17.2135C117.934 18.0383 118.18 18.9632 118.18 20H118.68ZM117.88 16.96L118.311 16.7065C117.735 15.7265 116.953 14.9455 115.974 14.369L115.72 14.8L115.466 15.231C116.3 15.7212 116.959 16.3801 117.449 17.2135L117.88 16.96ZM115.72 14.8L115.974 14.369C114.985 13.7876 113.883 13.5 112.68 13.5V14V14.5C113.717 14.5 114.642 14.7458 115.466 15.231L115.72 14.8ZM112.68 14V13.5H94.36V14V14.5H112.68V14ZM94.36 14H93.86V38H94.36H94.86V14H94.36ZM94.36 38V37.5H90.36V38V38.5H94.36V38ZM90.36 38H90.86V10H90.36H89.86V38H90.36ZM90.36 10V10.5H112.68V10V9.5H90.36V10ZM112.68 10V10.5C114.434 10.5 116.024 10.9308 117.464 11.7894L117.72 11.36L117.976 10.9306C116.376 9.97585 114.606 9.5 112.68 9.5V10ZM117.72 11.36L117.469 11.7927C118.914 12.6289 120.051 13.7661 120.887 15.2105L121.32 14.96L121.753 14.7095C120.829 13.1139 119.566 11.8511 117.971 10.9273L117.72 11.36ZM121.32 14.96L120.891 15.2161C121.749 16.6555 122.18 18.2464 122.18 20H122.68H123.18C123.18 18.0736 122.704 16.3045 121.749 14.7039L121.32 14.96ZM122.68 20H122.18C122.18 21.5748 121.825 23.0276 121.118 24.3664L121.56 24.6L122.002 24.8336C122.788 23.3457 123.18 21.7318 123.18 20H122.68ZM121.56 24.6L121.114 24.373C120.43 25.7164 119.482 26.829 118.265 27.716L118.56 28.12L118.855 28.524C120.198 27.5443 121.25 26.3103 122.006 24.827L121.56 24.6ZM118.56 28.12L118.267 27.7149C117.079 28.5741 115.725 29.1322 114.198 29.3868L114.28 29.88L114.362 30.3732C116.035 30.0945 117.534 29.4792 118.853 28.5251L118.56 28.12ZM114.28 29.88L113.932 30.2395L122.332 38.3595L122.68 38L123.028 37.6405L114.628 29.5205L114.28 29.88ZM131.782 38V37.5H127.782V38V38.5H131.782V38ZM127.782 38H128.282V10H127.782H127.282V38H127.782ZM127.782 10V10.5H131.782V10V9.5H127.782V10ZM131.782 10H131.282V38H131.782H132.282V10H131.782ZM169.725 10L169.282 9.76733L154.562 37.7673L155.005 38L155.448 38.2327L170.168 10.2327L169.725 10ZM155.005 38V37.5H150.445V38V38.5H155.005V38ZM150.445 38L150.888 37.7673L136.168 9.76733L135.725 10L135.282 10.2327L150.002 38.2327L150.445 38ZM135.725 10V10.5H140.285V10V9.5H135.725V10ZM140.285 10L139.842 10.2325L152.282 33.9125L152.725 33.68L153.168 33.4475L140.728 9.76746L140.285 10ZM152.725 33.68L153.168 33.9125L165.608 10.2325L165.165 10L164.722 9.76746L152.282 33.4475L152.725 33.68ZM165.165 10V10.5H169.725V10V9.5H165.165V10ZM202.64 38V37.5H173.68V38V38.5H202.64V38ZM173.68 38H174.18V10H173.68H173.18V38H173.68ZM173.68 10V10.5H202.64V10V9.5H173.68V10ZM202.64 10H202.14V14H202.64H203.14V10H202.64ZM202.64 14V13.5H177.68V14V14.5H202.64V14ZM177.68 14H177.18V34H177.68H178.18V14H177.68ZM177.68 34V34.5H202.64V34V33.5H177.68V34ZM202.64 34H202.14V38H202.64H203.14V34H202.64ZM199.24 26V25.5H179.68V26V26.5H199.24V26ZM179.68 26H180.18V22H179.68H179.18V26H179.68ZM179.68 22V22.5H199.24V22V21.5H179.68V22ZM199.24 22H198.74V26H199.24H199.74V22H199.24ZM239.907 38V37.5H234.507V38V38.5H239.907V38ZM234.507 38L234.851 37.6379L226.451 29.6379L226.107 30L225.762 30.3621L234.162 38.3621L234.507 38ZM226.107 30V29.5H213.827V30V30.5H226.107V30ZM213.827 30H214.327V26.04H213.827H213.327V30H213.827ZM213.827 26.04V26.54H229.907V26.04V25.54H213.827V26.04ZM229.907 26.04V26.54C231.11 26.54 232.212 26.2524 233.2 25.671L232.947 25.24L232.693 24.809C231.868 25.2942 230.943 25.54 229.907 25.54V26.04ZM232.947 25.24L233.209 25.6654C234.184 25.0632 234.962 24.2713 235.538 23.2935L235.107 23.04L234.676 22.7865C234.184 23.6221 233.522 24.2968 232.684 24.8146L232.947 25.24ZM235.107 23.04L235.541 23.2881C236.118 22.2778 236.407 21.1788 236.407 20H235.907H235.407C235.407 21.0079 235.162 21.9355 234.672 22.7919L235.107 23.04ZM235.907 20H236.407C236.407 18.7968 236.119 17.695 235.538 16.7065L235.107 16.96L234.676 17.2135C235.161 18.0383 235.407 18.9632 235.407 20H235.907ZM235.107 16.96L235.538 16.7065C234.961 15.7265 234.18 14.9455 233.2 14.369L232.947 14.8L232.693 15.231C233.526 15.7212 234.185 16.3801 234.676 17.2135L235.107 16.96ZM232.947 14.8L233.2 14.369C232.212 13.7876 231.11 13.5 229.907 13.5V14V14.5C230.943 14.5 231.868 14.7458 232.693 15.231L232.947 14.8ZM229.907 14V13.5H211.587V14V14.5H229.907V14ZM211.587 14H211.087V38H211.587H212.087V14H211.587ZM211.587 38V37.5H207.587V38V38.5H211.587V38ZM207.587 38H208.087V10H207.587H207.087V38H207.587ZM207.587 10V10.5H229.907V10V9.5H207.587V10ZM229.907 10V10.5C231.66 10.5 233.251 10.9308 234.69 11.7894L234.947 11.36L235.203 10.9306C233.602 9.97585 231.833 9.5 229.907 9.5V10ZM234.947 11.36L234.696 11.7927C236.14 12.6289 237.278 13.7661 238.114 15.2105L238.547 14.96L238.979 14.7095C238.056 13.1139 236.793 11.8511 235.197 10.9273L234.947 11.36ZM238.547 14.96L238.117 15.2161C238.976 16.6555 239.407 18.2464 239.407 20H239.907H240.407C240.407 18.0736 239.931 16.3045 238.976 14.7039L238.547 14.96ZM239.907 20H239.407C239.407 21.5748 239.052 23.0276 238.344 24.3664L238.787 24.6L239.229 24.8336C240.015 23.3457 240.407 21.7318 240.407 20H239.907ZM238.787 24.6L238.341 24.373C237.657 25.7164 236.708 26.829 235.492 27.716L235.787 28.12L236.081 28.524C237.425 27.5443 238.476 26.3103 239.232 24.827L238.787 24.6ZM235.787 28.12L235.494 27.7149C234.306 28.5741 232.952 29.1322 231.424 29.3868L231.507 29.88L231.589 30.3732C233.261 30.0945 234.761 29.4792 236.08 28.5251L235.787 28.12ZM231.507 29.88L231.159 30.2395L239.559 38.3595L239.907 38L240.254 37.6405L231.854 29.5205L231.507 29.88ZM275.928 30H275.428C275.428 31.3806 275.091 32.6394 274.417 33.7869L274.848 34.04L275.28 34.2931C276.046 32.9872 276.428 31.5527 276.428 30H275.928ZM274.848 34.04L274.42 33.7828C273.742 34.9124 272.841 35.8135 271.711 36.4913L271.968 36.92L272.226 37.3487C273.496 36.5865 274.515 35.5676 275.277 34.2972L274.848 34.04ZM271.968 36.92L271.711 36.4913C270.594 37.1615 269.337 37.5 267.928 37.5V38V38.5C269.506 38.5 270.943 38.1185 272.226 37.3487L271.968 36.92ZM267.928 38V37.5H243.608V38V38.5H267.928V38ZM243.608 38H244.108V34H243.608H243.108V38H243.608ZM243.608 34V34.5H267.928V34V33.5H243.608V34ZM267.928 34V34.5C269.177 34.5 270.252 34.0632 271.122 33.1936L270.768 32.84L270.415 32.4864C269.738 33.1635 268.919 33.5 267.928 33.5V34ZM270.768 32.84L271.128 33.1875C271.99 32.2961 272.428 31.2255 272.428 30H271.928H271.428C271.428 30.9611 271.094 31.7839 270.409 32.4925L270.768 32.84ZM271.928 30H272.428C272.428 28.774 271.989 27.7135 271.122 26.8464L270.768 27.2L270.415 27.5536C271.094 28.2331 271.428 29.0393 271.428 30H271.928ZM270.768 27.2L271.128 26.8525C270.26 25.9543 269.183 25.5 267.928 25.5V26V26.5C268.914 26.5 269.731 26.8457 270.409 27.5475L270.768 27.2ZM267.928 26V25.5H251.608V26V26.5H267.928V26ZM251.608 26V25.5C250.228 25.5 248.969 25.1623 247.822 24.4888L247.568 24.92L247.315 25.3512C248.621 26.1177 250.056 26.5 251.608 26.5V26ZM247.568 24.92L247.826 24.4913C246.696 23.8135 245.795 22.9124 245.117 21.7828L244.688 22.04L244.26 22.2972C245.022 23.5676 246.041 24.5865 247.311 25.3487L247.568 24.92ZM244.688 22.04L245.12 21.7869C244.446 20.6394 244.108 19.3806 244.108 18H243.608H243.108C243.108 19.5527 243.491 20.9872 244.257 22.2931L244.688 22.04ZM243.608 18H244.108C244.108 16.6194 244.446 15.3757 245.117 14.2572L244.688 14L244.26 13.7428C243.491 15.0243 243.108 16.4473 243.108 18H243.608ZM244.688 14L245.12 14.2531C245.798 13.0974 246.699 12.1849 247.826 11.5087L247.568 11.08L247.311 10.6513C246.038 11.415 245.019 12.4493 244.257 13.7469L244.688 14ZM247.568 11.08L247.822 11.5112C248.969 10.8377 250.228 10.5 251.608 10.5V10V9.5C250.056 9.5 248.621 9.8823 247.315 10.6488L247.568 11.08ZM251.608 10V10.5H273.928V10V9.5H251.608V10ZM273.928 10H273.428V14H273.928H274.428V10H273.928ZM273.928 14V13.5H251.608V14V14.5H273.928V14ZM251.608 14V13.5C250.377 13.5 249.305 13.9563 248.415 14.8464L248.768 15.2L249.122 15.5536C249.832 14.8437 250.653 14.5 251.608 14.5V14ZM248.768 15.2L248.415 14.8464C247.548 15.7135 247.108 16.774 247.108 18H247.608H248.108C248.108 17.0393 248.442 16.2331 249.122 15.5536L248.768 15.2ZM247.608 18H247.108C247.108 19.2255 247.547 20.2961 248.409 21.1875L248.768 20.84L249.128 20.4925C248.443 19.7839 248.108 18.9611 248.108 18H247.608ZM248.768 20.84L248.421 21.1995C249.312 22.0612 250.383 22.5 251.608 22.5V22V21.5C250.647 21.5 249.825 21.1655 249.116 20.4805L248.768 20.84ZM251.608 22V22.5H267.928V22V21.5H251.608V22ZM267.928 22V22.5C269.337 22.5 270.594 22.8385 271.711 23.5087L271.968 23.08L272.226 22.6513C270.943 21.8815 269.506 21.5 267.928 21.5V22ZM271.968 23.08L271.711 23.5087C272.838 24.1849 273.739 25.0974 274.417 26.2531L274.848 26L275.28 25.7469C274.518 24.4493 273.499 23.415 272.226 22.6513L271.968 23.08ZM274.848 26L274.42 26.2572C275.091 27.3757 275.428 28.6194 275.428 30H275.928H276.428C276.428 28.4473 276.046 27.0243 275.277 25.7428L274.848 26ZM295.794 38V37.5H291.794V38V38.5H295.794V38ZM291.794 38H292.294V14H291.794H291.294V38H291.794ZM291.794 14V13.5H277.634V14V14.5H291.794V14ZM277.634 14H278.134V10H277.634H277.134V14H277.634ZM277.634 10V10.5H309.954V10V9.5H277.634V10ZM309.954 10H309.454V14H309.954H310.454V10H309.954ZM309.954 14V13.5H295.794V14V14.5H309.954V14ZM295.794 14H295.294V38H295.794H296.294V14H295.794ZM343.919 38V37.5H339.919V38V38.5H343.919V38ZM339.919 38H340.419V30H339.919H339.419V38H339.919ZM339.919 30V29.5H317.559V30V30.5H339.919V30ZM317.559 30H318.059V26H317.559H317.059V30H317.559ZM317.559 26V26.5H339.919V26V25.5H317.559V26ZM339.919 26H340.419V14H339.919H339.419V26H339.919ZM339.919 14V13.5H325.559V14V14.5H339.919V14ZM325.559 14V13.5C323.658 13.5 321.902 13.9765 320.303 14.9306L320.559 15.36L320.815 15.7894C322.255 14.9301 323.833 14.5 325.559 14.5V14ZM320.559 15.36L320.308 14.9273C318.714 15.8503 317.439 17.1113 316.489 18.7039L316.919 18.96L317.348 19.2161C318.212 17.7687 319.364 16.6297 320.809 15.7927L320.559 15.36ZM316.919 18.96L316.486 18.7095C315.56 20.3093 315.099 22.0764 315.099 24H315.599H316.099C316.099 22.2436 316.518 20.6507 317.351 19.2105L316.919 18.96ZM315.599 24H315.099V38H315.599H316.099V24H315.599ZM315.599 38V37.5H311.599V38V38.5H315.599V38ZM311.599 38H312.099V24H311.599H311.099V38H311.599ZM311.599 24H312.099C312.099 22.1442 312.446 20.4116 313.138 18.797L312.679 18.6L312.219 18.403C311.471 20.1484 311.099 22.0158 311.099 24H311.599ZM312.679 18.6L313.139 18.7943C313.835 17.1458 314.799 15.7068 316.032 14.4736L315.679 14.12L315.325 13.7664C313.998 15.0932 312.963 16.6409 312.218 18.4056L312.679 18.6ZM315.679 14.12L316.036 14.4699C317.27 13.2099 318.696 12.2338 320.316 11.5396L320.119 11.08L319.922 10.6204C318.182 11.3662 316.647 12.4168 315.322 13.7701L315.679 14.12ZM320.119 11.08L320.313 11.5407C321.956 10.8476 323.703 10.5 325.559 10.5V10V9.5C323.574 9.5 321.695 9.87242 319.924 10.6193L320.119 11.08ZM325.559 10V10.5H343.919V10V9.5H325.559V10ZM343.919 10H343.419V38H343.919H344.419V10H343.919ZM382.953 38V37.5H377.553V38V38.5H382.953V38ZM377.553 38L377.898 37.6379L369.498 29.6379L369.153 30L368.809 30.3621L377.209 38.3621L377.553 38ZM369.153 30V29.5H356.873V30V30.5H369.153V30ZM356.873 30H357.373V26.04H356.873H356.373V30H356.873ZM356.873 26.04V26.54H372.953V26.04V25.54H356.873V26.04ZM372.953 26.04V26.54C374.157 26.54 375.258 26.2524 376.247 25.671L375.993 25.24L375.74 24.809C374.915 25.2942 373.99 25.54 372.953 25.54V26.04ZM375.993 25.24L376.256 25.6654C377.231 25.0632 378.009 24.2713 378.584 23.2935L378.153 23.04L377.722 22.7865C377.231 23.6221 376.569 24.2968 375.731 24.8146L375.993 25.24ZM378.153 23.04L378.588 23.2881C379.165 22.2778 379.453 21.1788 379.453 20H378.953H378.453C378.453 21.0079 378.209 21.9355 377.719 22.7919L378.153 23.04ZM378.953 20H379.453C379.453 18.7969 379.166 17.695 378.584 16.7065L378.153 16.96L377.722 17.2135C378.208 18.0383 378.453 18.9632 378.453 20H378.953ZM378.153 16.96L378.584 16.7065C378.008 15.7265 377.227 14.9455 376.247 14.369L375.993 14.8L375.74 15.231C376.573 15.7212 377.232 16.3801 377.722 17.2135L378.153 16.96ZM375.993 14.8L376.247 14.369C375.258 13.7876 374.157 13.5 372.953 13.5V14V14.5C373.99 14.5 374.915 14.7458 375.74 15.231L375.993 14.8ZM372.953 14V13.5H354.633V14V14.5H372.953V14ZM354.633 14H354.133V38H354.633H355.133V14H354.633ZM354.633 38V37.5H350.633V38V38.5H354.633V38ZM350.633 38H351.133V10H350.633H350.133V38H350.633ZM350.633 10V10.5H372.953V10V9.5H350.633V10ZM372.953 10V10.5C374.707 10.5 376.298 10.9308 377.737 11.7894L377.993 11.36L378.25 10.9306C376.649 9.97584 374.88 9.5 372.953 9.5V10ZM377.993 11.36L377.743 11.7927C379.187 12.6289 380.325 13.7661 381.161 15.2105L381.593 14.96L382.026 14.7095C381.102 13.1139 379.84 11.8511 378.244 10.9273L377.993 11.36ZM381.593 14.96L381.164 15.2161C382.023 16.6555 382.453 18.2464 382.453 20H382.953H383.453C383.453 18.0736 382.978 16.3045 382.023 14.7039L381.593 14.96ZM382.953 20H382.453C382.453 21.5748 382.099 23.0276 381.391 24.3664L381.833 24.6L382.276 24.8336C383.062 23.3457 383.453 21.7318 383.453 20H382.953ZM381.833 24.6L381.388 24.373C380.704 25.7164 379.755 26.829 378.539 27.716L378.833 28.12L379.128 28.524C380.472 27.5443 381.523 26.3103 382.279 24.827L381.833 24.6ZM378.833 28.12L378.54 27.7149C377.353 28.5741 375.999 29.1322 374.471 29.3868L374.553 29.88L374.636 30.3732C376.308 30.0945 377.808 29.4792 379.126 28.5251L378.833 28.12ZM374.553 29.88L374.206 30.2395L382.606 38.3595L382.953 38L383.301 37.6405L374.901 29.5205L374.553 29.88ZM100.072 57V56.5H92.856V57V57.5H100.072V57ZM92.856 57V56.5C92.1401 56.5 91.5084 56.3679 90.9521 56.1133L90.744 56.568L90.5359 57.0227C91.2383 57.3441 92.0145 57.5 92.856 57.5V57ZM90.744 56.568L90.9521 56.1133C90.3848 55.8538 89.8969 55.4948 89.4844 55.0344L89.112 55.368L88.7396 55.7016C89.2445 56.2652 89.8445 56.7062 90.5359 57.0227L90.744 56.568ZM89.112 55.368L89.4883 55.0387C89.0829 54.5755 88.767 54.0376 88.5417 53.4205L88.072 53.592L87.6023 53.7635C87.8677 54.4903 88.2451 55.1365 88.7357 55.6973L89.112 55.368ZM88.072 53.592L88.5425 53.4229C88.3181 52.7983 88.204 52.1253 88.204 51.4H87.704H87.204C87.204 52.2321 87.3352 53.0203 87.6015 53.7611L88.072 53.592ZM87.704 51.4H88.204C88.204 50.6862 88.3178 50.0246 88.5417 49.4115L88.072 49.24L87.6023 49.0685C87.3355 49.7994 87.204 50.5778 87.204 51.4H87.704ZM88.072 49.24L88.5425 49.4091C88.7682 48.7813 89.0841 48.2392 89.4883 47.7773L89.112 47.448L88.7357 47.1187C88.2439 47.6808 87.8665 48.3334 87.6015 49.0709L88.072 49.24ZM89.112 47.448L89.4878 47.7778C89.9002 47.3078 90.3871 46.9452 90.9521 46.6867L90.744 46.232L90.5359 45.7773C89.8422 46.0948 89.2411 46.5428 88.7362 47.1182L89.112 47.448ZM90.744 46.232L90.9521 46.6867C91.5084 46.4321 92.1401 46.3 92.856 46.3V45.8V45.3C92.0145 45.3 91.2383 45.4559 90.5359 45.7773L90.744 46.232ZM92.856 45.8V46.3H100.072V45.8V45.3H92.856V45.8ZM100.072 45.8H99.572V47.4H100.072H100.572V45.8H100.072ZM100.072 47.4V46.9H92.856V47.4V47.9H100.072V47.4ZM92.856 47.4V46.9C92.0343 46.9 91.2984 47.1038 90.6708 47.5305L90.952 47.944L91.2332 48.3575C91.6723 48.0589 92.2057 47.9 92.856 47.9V47.4ZM90.952 47.944L90.6727 47.5293C90.0705 47.9349 89.6079 48.4865 89.2841 49.17L89.736 49.384L90.1879 49.598C90.4401 49.0655 90.7882 48.6571 91.2313 48.3587L90.952 47.944ZM89.736 49.384L89.2841 49.17C88.9616 49.851 88.804 50.597 88.804 51.4H89.304H89.804C89.804 50.731 89.9344 50.133 90.1879 49.598L89.736 49.384ZM89.304 51.4H88.804C88.804 52.203 88.9616 52.949 89.2841 53.63L89.736 53.416L90.1879 53.202C89.9344 52.667 89.804 52.069 89.804 51.4H89.304ZM89.736 53.416L89.2856 53.6332C89.6094 54.3048 90.0703 54.8528 90.667 55.2668L90.952 54.856L91.237 54.4452C90.7883 54.1339 90.4386 53.7219 90.1864 53.1989L89.736 53.416ZM90.952 54.856L90.6708 55.2695C91.2984 55.6962 92.0343 55.9 92.856 55.9V55.4V54.9C92.2057 54.9 91.6723 54.7411 91.2332 54.4425L90.952 54.856ZM92.856 55.4V55.9H100.072V55.4V54.9H92.856V55.4ZM100.072 55.4H99.572V57H100.072H100.572V55.4H100.072ZM115.111 51.4H114.611C114.611 52.1253 114.497 52.7983 114.272 53.4229L114.743 53.592L115.213 53.7611C115.479 53.0203 115.611 52.2321 115.611 51.4H115.111ZM114.743 53.592L114.273 53.4205C114.049 54.0353 113.729 54.5717 113.314 55.0344L113.687 55.368L114.059 55.7016C114.562 55.1403 114.946 54.4927 115.212 53.7635L114.743 53.592ZM113.687 55.368L113.31 55.0387C112.91 55.4966 112.429 55.8543 111.863 56.1133L112.071 56.568L112.279 57.0227C112.971 56.7057 113.568 56.2634 114.063 55.6973L113.687 55.368ZM112.071 56.568L111.863 56.1133C111.305 56.3683 110.679 56.5 109.975 56.5V57V57.5C110.806 57.5 111.577 57.3437 112.279 57.0227L112.071 56.568ZM109.975 57V56.5H106.247V57V57.5H109.975V57ZM106.247 57V56.5C105.531 56.5 104.899 56.3679 104.343 56.1133L104.135 56.568L103.927 57.0227C104.629 57.3441 105.405 57.5 106.247 57.5V57ZM104.135 56.568L104.343 56.1133C103.775 55.8538 103.288 55.4948 102.875 55.0344L102.503 55.368L102.13 55.7016C102.635 56.2652 103.235 56.7062 103.927 57.0227L104.135 56.568ZM102.503 55.368L102.879 55.0387C102.474 54.5755 102.158 54.0376 101.932 53.4205L101.463 53.592L100.993 53.7635C101.258 54.4903 101.636 55.1365 102.126 55.6973L102.503 55.368ZM101.463 53.592L101.933 53.4229C101.709 52.7983 101.595 52.1253 101.595 51.4H101.095H100.595C100.595 52.2321 100.726 53.0203 100.992 53.7611L101.463 53.592ZM101.095 51.4H101.595C101.595 50.6862 101.708 50.0246 101.932 49.4115L101.463 49.24L100.993 49.0685C100.726 49.7994 100.595 50.5778 100.595 51.4H101.095ZM101.463 49.24L101.933 49.4091C102.159 48.7813 102.475 48.2392 102.879 47.7773L102.503 47.448L102.126 47.1187C101.635 47.6808 101.257 48.3334 100.992 49.0709L101.463 49.24ZM102.503 47.448L102.878 47.7778C103.291 47.3078 103.778 46.9452 104.343 46.6867L104.135 46.232L103.927 45.7773C103.233 46.0948 102.632 46.5428 102.127 47.1182L102.503 47.448ZM104.135 46.232L104.343 46.6867C104.899 46.4321 105.531 46.3 106.247 46.3V45.8V45.3C105.405 45.3 104.629 45.4559 103.927 45.7773L104.135 46.232ZM106.247 45.8V46.3H109.975V45.8V45.3H106.247V45.8ZM109.975 45.8V46.3C110.679 46.3 111.305 46.4317 111.863 46.6867L112.071 46.232L112.279 45.7773C111.577 45.4563 110.806 45.3 109.975 45.3V45.8ZM112.071 46.232L111.863 46.6867C112.426 46.9447 112.906 47.306 113.307 47.7734L113.687 47.448L114.066 47.1226C113.571 46.5446 112.974 46.0953 112.279 45.7773L112.071 46.232ZM113.687 47.448L113.314 47.7816C113.728 48.243 114.047 48.7837 114.272 49.4091L114.743 49.24L115.213 49.0709C114.947 48.331 114.563 47.677 114.059 47.1144L113.687 47.448ZM114.743 49.24L114.273 49.4115C114.497 50.0246 114.611 50.6862 114.611 51.4H115.111H115.611C115.611 50.5778 115.479 49.7994 115.212 49.0685L114.743 49.24ZM113.511 51.4H114.011C114.011 50.597 113.853 49.851 113.53 49.17L113.079 49.384L112.627 49.598C112.88 50.133 113.011 50.731 113.011 51.4H113.511ZM113.079 49.384L113.534 49.1765C113.219 48.4872 112.753 47.9328 112.138 47.5267L111.863 47.944L111.587 48.3613C112.039 48.6592 112.383 49.0648 112.624 49.5915L113.079 49.384ZM111.863 47.944L112.148 47.5332C111.529 47.1037 110.796 46.9 109.975 46.9V47.4V47.9C110.625 47.9 111.151 48.0589 111.578 48.3548L111.863 47.944ZM109.975 47.4V46.9H106.247V47.4V47.9H109.975V47.4ZM106.247 47.4V46.9C105.425 46.9 104.689 47.1038 104.061 47.5305L104.343 47.944L104.624 48.3575C105.063 48.0589 105.596 47.9 106.247 47.9V47.4ZM104.343 47.944L104.063 47.5293C103.461 47.9349 102.999 48.4865 102.675 49.17L103.127 49.384L103.578 49.598C103.831 49.0655 104.179 48.6571 104.622 48.3587L104.343 47.944ZM103.127 49.384L102.675 49.17C102.352 49.851 102.195 50.597 102.195 51.4H102.695H103.195C103.195 50.731 103.325 50.133 103.578 49.598L103.127 49.384ZM102.695 51.4H102.195C102.195 52.203 102.352 52.949 102.675 53.63L103.127 53.416L103.578 53.202C103.325 52.667 103.195 52.069 103.195 51.4H102.695ZM103.127 53.416L102.676 53.6332C103 54.3048 103.461 54.8528 104.058 55.2668L104.343 54.856L104.628 54.4452C104.179 54.1339 103.829 53.7219 103.577 53.1989L103.127 53.416ZM104.343 54.856L104.061 55.2695C104.689 55.6962 105.425 55.9 106.247 55.9V55.4V54.9C105.596 54.9 105.063 54.7411 104.624 54.4425L104.343 54.856ZM106.247 55.4V55.9H109.975V55.4V54.9H106.247V55.4ZM109.975 55.4V55.9C110.796 55.9 111.529 55.6963 112.148 55.2668L111.863 54.856L111.578 54.4452C111.151 54.7411 110.625 54.9 109.975 54.9V55.4ZM111.863 54.856L112.144 55.2695C112.753 54.8549 113.218 54.304 113.532 53.6266L113.079 53.416L112.625 53.2054C112.385 53.7226 112.038 54.1318 111.581 54.4425L111.863 54.856ZM113.079 53.416L113.53 53.63C113.853 52.949 114.011 52.203 114.011 51.4H113.511H113.011C113.011 52.069 112.88 52.667 112.627 53.202L113.079 53.416ZM118.757 57V56.5H117.157V57V57.5H118.757V57ZM117.157 57H117.657V45.8H117.157H116.657V57H117.157ZM117.157 45.8V46.3H117.956V45.8V45.3H117.157V45.8ZM117.956 45.8V46.3C118.672 46.3 119.461 46.4372 120.328 46.7229L120.484 46.248L120.641 45.7731C119.695 45.4614 118.799 45.3 117.956 45.3V45.8ZM120.484 46.248L120.33 46.7234C121.209 47.0096 122.092 47.4149 122.981 47.9421L123.237 47.512L123.492 47.0819C122.546 46.5211 121.595 46.0837 120.639 45.7726L120.484 46.248ZM123.237 47.512L122.981 47.9421C123.867 48.4669 124.702 49.0957 125.487 49.8294L125.828 49.464L126.17 49.0986C125.334 48.3177 124.441 47.6451 123.492 47.0819L123.237 47.512ZM125.828 49.464L125.492 49.834C126.282 50.5516 126.957 51.3499 127.519 52.2294L127.94 51.96L128.362 51.6906C127.751 50.7354 127.018 49.8698 126.165 49.094L125.828 49.464ZM127.94 51.96H128.44V45.8H127.94H127.44V51.96H127.94ZM127.94 45.8V46.3H129.54V45.8V45.3H127.94V45.8ZM129.54 45.8H129.04V57H129.54H130.04V45.8H129.54ZM129.54 57V56.5H127.94V57V57.5H129.54V57ZM127.94 57H128.44C128.44 55.9474 128.223 54.9385 127.788 53.9779L127.333 54.184L126.877 54.3901C127.253 55.2215 127.44 56.0899 127.44 57H127.94ZM127.333 54.184L127.791 53.9844C127.375 53.0299 126.82 52.1544 126.125 51.3591L125.749 51.688L125.372 52.0169C126 52.7362 126.5 53.5247 126.874 54.3836L127.333 54.184ZM125.749 51.688L126.127 51.3617C125.441 50.5646 124.676 49.8607 123.834 49.2509L123.54 49.656L123.247 50.0611C124.026 50.6246 124.733 51.2754 125.37 52.0143L125.749 51.688ZM123.54 49.656L123.84 49.2554C123.013 48.6382 122.166 48.1335 121.297 47.7438L121.092 48.2L120.888 48.6562C121.683 49.0132 122.468 49.4792 123.241 50.0566L123.54 49.656ZM121.092 48.2L121.302 47.746C120.437 47.3468 119.612 47.0844 118.829 46.9693L118.757 47.464L118.684 47.9587C119.352 48.0569 120.084 48.2852 120.883 48.654L121.092 48.2ZM118.757 47.464H118.257V57H118.757H119.257V47.464H118.757ZM144.603 53.8H144.103C144.103 54.3006 143.981 54.7514 143.739 55.1629L144.171 55.416L144.602 55.6691C144.936 55.0992 145.103 54.4728 145.103 53.8H144.603ZM144.171 55.416L143.742 55.1588C143.496 55.5684 143.171 55.8935 142.761 56.1393L143.019 56.568L143.276 56.9967C143.826 56.6665 144.269 56.2236 144.599 55.6732L144.171 55.416ZM143.019 56.568L142.761 56.1393C142.364 56.3775 141.916 56.5 141.403 56.5V57V57.5C142.084 57.5 142.713 57.3345 143.276 56.9967L143.019 56.568ZM141.403 57V56.5H131.675V57V57.5H141.403V57ZM131.675 57H132.175V55.4H131.675H131.175V57H131.675ZM131.675 55.4V55.9H141.403V55.4V54.9H131.675V55.4ZM141.403 55.4V55.9C141.98 55.9 142.487 55.6952 142.892 55.2896L142.539 54.936L142.185 54.5824C141.972 54.7955 141.722 54.9 141.403 54.9V55.4ZM142.539 54.936L142.898 55.2835C143.296 54.8721 143.503 54.3695 143.503 53.8H143.003H142.503C142.503 54.1051 142.4 54.3599 142.179 54.5885L142.539 54.936ZM143.003 53.8H143.503C143.503 53.23 143.295 52.7295 142.892 52.3264L142.539 52.68L142.185 53.0336C142.401 53.2492 142.503 53.4953 142.503 53.8H143.003ZM142.539 52.68L142.898 52.3325C142.494 51.9143 141.985 51.7 141.403 51.7V52.2V52.7C141.716 52.7 141.965 52.8057 142.179 53.0275L142.539 52.68ZM141.403 52.2V51.7H134.875V52.2V52.7H141.403V52.2ZM134.875 52.2V51.7C134.374 51.7 133.923 51.5783 133.512 51.3368L133.259 51.768L133.006 52.1992C133.575 52.5337 134.202 52.7 134.875 52.7V52.2ZM133.259 51.768L133.516 51.3393C133.106 51.0935 132.781 50.7684 132.535 50.3588L132.107 50.616L131.678 50.8732C132.008 51.4236 132.451 51.8665 133.001 52.1967L133.259 51.768ZM132.107 50.616L132.538 50.3629C132.296 49.9514 132.175 49.5006 132.175 49H131.675H131.175C131.175 49.6728 131.341 50.2992 131.675 50.8691L132.107 50.616ZM131.675 49H132.175C132.175 48.4994 132.296 48.0557 132.535 47.6572L132.107 47.4L131.678 47.1428C131.341 47.7043 131.175 48.3273 131.175 49H131.675ZM132.107 47.4L132.538 47.6531C132.784 47.2334 133.109 46.9049 133.516 46.6607L133.259 46.232L133.001 45.8033C132.448 46.1351 132.005 46.5853 131.675 47.1469L132.107 47.4ZM133.259 46.232L133.512 46.6632C133.923 46.4217 134.374 46.3 134.875 46.3V45.8V45.3C134.202 45.3 133.575 45.4663 133.006 45.8008L133.259 46.232ZM134.875 45.8V46.3H143.803V45.8V45.3H134.875V45.8ZM143.803 45.8H143.303V47.4H143.803H144.303V45.8H143.803ZM143.803 47.4V46.9H134.875V47.4V47.9H143.803V47.4ZM134.875 47.4V46.9C134.3 46.9 133.795 47.1163 133.385 47.5264L133.739 47.88L134.092 48.2336C134.322 48.0037 134.575 47.9 134.875 47.9V47.4ZM133.739 47.88L133.385 47.5264C132.982 47.9295 132.775 48.43 132.775 49H133.275H133.775C133.775 48.6953 133.877 48.4491 134.092 48.2336L133.739 47.88ZM133.275 49H132.775C132.775 49.5695 132.981 50.0721 133.379 50.4835L133.739 50.136L134.098 49.7885C133.877 49.5599 133.775 49.3051 133.775 49H133.275ZM133.739 50.136L133.391 50.4955C133.803 50.8932 134.305 51.1 134.875 51.1V50.6V50.1C134.569 50.1 134.315 49.9975 134.086 49.7765L133.739 50.136ZM134.875 50.6V51.1H141.403V50.6V50.1H134.875V50.6ZM141.403 50.6V51.1C141.916 51.1 142.364 51.2225 142.761 51.4607L143.019 51.032L143.276 50.6033C142.713 50.2655 142.084 50.1 141.403 50.1V50.6ZM143.019 51.032L142.761 51.4607C143.168 51.7049 143.493 52.0334 143.739 52.4531L144.171 52.2L144.602 51.9469C144.272 51.3853 143.829 50.935 143.276 50.6033L143.019 51.032ZM144.171 52.2L143.742 52.4572C143.981 52.8557 144.103 53.2994 144.103 53.8H144.603H145.103C145.103 53.1273 144.936 52.5043 144.599 51.9428L144.171 52.2ZM152.549 57V56.5H150.949V57V57.5H152.549V57ZM150.949 57H151.449V47.4H150.949H150.449V57H150.949ZM150.949 47.4V46.9H145.285V47.4V47.9H150.949V47.4ZM145.285 47.4H145.785V45.8H145.285H144.785V47.4H145.285ZM145.285 45.8V46.3H158.213V45.8V45.3H145.285V45.8ZM158.213 45.8H157.713V47.4H158.213H158.713V45.8H158.213ZM158.213 47.4V46.9H152.549V47.4V47.9H158.213V47.4ZM152.549 47.4H152.049V57H152.549H153.049V47.4H152.549ZM172.647 57V56.5H170.487V57V57.5H172.647V57ZM170.487 57L170.832 56.6379L167.472 53.4379L167.127 53.8L166.782 54.1621L170.142 57.3621L170.487 57ZM167.127 53.8V53.3H162.215V53.8V54.3H167.127V53.8ZM162.215 53.8H162.715V52.216H162.215H161.715V53.8H162.215ZM162.215 52.216V52.716H168.647V52.216V51.716H162.215V52.216ZM168.647 52.216V52.716C169.178 52.716 169.672 52.5884 170.117 52.327L169.863 51.896L169.609 51.465C169.329 51.6302 169.012 51.716 168.647 51.716V52.216ZM169.863 51.896L170.126 52.3214C170.557 52.0552 170.903 51.7033 171.158 51.2695L170.727 51.016L170.296 50.7625C170.125 51.0541 169.895 51.2888 169.6 51.4706L169.863 51.896ZM170.727 51.016L171.161 51.2641C171.418 50.8138 171.547 50.3228 171.547 49.8H171.047H170.547C170.547 50.1519 170.462 50.4715 170.293 50.7679L170.727 51.016ZM171.047 49.8H171.547C171.547 49.2689 171.419 48.775 171.158 48.3305L170.727 48.584L170.296 48.8375C170.461 49.1183 170.547 49.4351 170.547 49.8H171.047ZM170.727 48.584L171.158 48.3305C170.902 47.8945 170.552 47.5455 170.117 47.289L169.863 47.72L169.609 48.151C169.899 48.3212 170.126 48.5481 170.296 48.8375L170.727 48.584ZM169.863 47.72L170.117 47.289C169.672 47.0276 169.178 46.9 168.647 46.9V47.4V47.9C169.012 47.9 169.329 47.9858 169.609 48.151L169.863 47.72ZM168.647 47.4V46.9H161.319V47.4V47.9H168.647V47.4ZM161.319 47.4H160.819V57H161.319H161.819V47.4H161.319ZM161.319 57V56.5H159.719V57V57.5H161.319V57ZM159.719 57H160.219V45.8H159.719H159.219V57H159.719ZM159.719 45.8V46.3H168.647V45.8V45.3H159.719V45.8ZM168.647 45.8V46.3C169.297 46.3 169.879 46.4588 170.407 46.7734L170.663 46.344L170.919 45.9146C170.231 45.5038 169.469 45.3 168.647 45.3V45.8ZM170.663 46.344L170.412 46.7767C170.945 47.0849 171.362 47.5021 171.67 48.0345L172.103 47.784L172.536 47.5335C172.14 46.8499 171.597 46.3071 170.914 45.9113L170.663 46.344ZM172.103 47.784L171.674 48.0401C171.988 48.5675 172.147 49.1504 172.147 49.8H172.647H173.147C173.147 48.9776 172.943 48.2165 172.532 47.5279L172.103 47.784ZM172.647 49.8H172.147C172.147 50.3828 172.016 50.9156 171.757 51.4064L172.199 51.64L172.641 51.8736C172.979 51.2337 173.147 50.5398 173.147 49.8H172.647ZM172.199 51.64L171.753 51.413C171.501 51.9084 171.153 52.317 170.704 52.644L170.999 53.048L171.294 53.452C171.869 53.0323 172.321 52.5023 172.645 51.867L172.199 51.64ZM170.999 53.048L170.706 52.6429C170.27 52.9581 169.772 53.1642 169.205 53.2588L169.287 53.752L169.369 54.2452C170.082 54.1265 170.725 53.8632 171.292 53.4531L170.999 53.048ZM169.287 53.752L168.939 54.1115L172.299 57.3595L172.647 57L172.995 56.6405L169.635 53.3925L169.287 53.752ZM186.688 45.8L186.188 45.7986L186.172 51.3986L186.672 51.4L187.172 51.4014L187.188 45.8014L186.688 45.8ZM186.672 51.4H186.172C186.172 52.1154 186.04 52.7796 185.779 53.3976L186.24 53.592L186.7 53.7863C187.016 53.0391 187.172 52.242 187.172 51.4H186.672ZM186.24 53.592L185.78 53.395C185.517 54.0092 185.153 54.5479 184.686 55.0144L185.04 55.368L185.393 55.7216C185.951 55.1641 186.387 54.5188 186.699 53.789L186.24 53.592ZM185.04 55.368L184.686 55.0144C184.221 55.4797 183.678 55.8438 183.053 56.1073L183.248 56.568L183.442 57.0287C184.183 56.7162 184.835 56.2803 185.393 55.7216L185.04 55.368ZM183.248 56.568L183.051 56.1084C182.444 56.3684 181.792 56.5 181.088 56.5V57V57.5C181.92 57.5 182.707 57.3436 183.445 57.0276L183.248 56.568ZM181.088 57V56.5H179.904V57V57.5H181.088V57ZM179.904 57V56.5C179.2 56.5 178.541 56.3684 177.922 56.1073L177.728 56.568L177.533 57.0287C178.28 57.3436 179.071 57.5 179.904 57.5V57ZM177.728 56.568L177.925 56.1084C177.311 55.8452 176.772 55.481 176.305 55.0144L175.952 55.368L175.598 55.7216C176.156 56.279 176.801 56.7148 177.531 57.0276L177.728 56.568ZM175.952 55.368L176.309 55.0181C175.84 54.5396 175.475 53.9941 175.211 53.379L174.752 53.576L174.292 53.773C174.605 54.5019 175.039 55.1511 175.595 55.7179L175.952 55.368ZM174.752 53.576L175.212 53.3816C174.951 52.7627 174.82 52.1037 174.82 51.4H174.32H173.82C173.82 52.2323 173.976 53.0239 174.291 53.7704L174.752 53.576ZM174.32 51.4H174.82V45.8H174.32H173.82V51.4H174.32ZM174.32 45.8V46.3H175.92V45.8V45.3H174.32V45.8ZM175.92 45.8H175.42V51.4H175.92H176.42V45.8H175.92ZM175.92 51.4H175.42C175.42 52.2196 175.617 52.9787 176.015 53.6665L176.448 53.416L176.88 53.1655C176.575 52.6373 176.42 52.0524 176.42 51.4H175.92ZM176.448 53.416L176.02 53.6755C176.426 54.3435 176.97 54.8815 177.648 55.2854L177.904 54.856L178.16 54.4266C177.621 54.1052 177.195 53.6831 176.875 53.1565L176.448 53.416ZM177.904 54.856L177.648 55.2854C178.335 55.6955 179.091 55.9 179.904 55.9V55.4V54.9C179.266 54.9 178.688 54.7419 178.16 54.4266L177.904 54.856ZM179.904 55.4V55.9H181.088V55.4V54.9H179.904V55.4ZM181.088 55.4V55.9C181.91 55.9 182.667 55.6961 183.347 55.2834L183.088 54.856L182.828 54.4286C182.313 54.7412 181.737 54.9 181.088 54.9V55.4ZM183.088 54.856L183.344 55.2854C184.022 54.8807 184.563 54.341 184.959 53.6698L184.528 53.416L184.097 53.1622C183.788 53.6857 183.369 54.1059 182.832 54.4266L183.088 54.856ZM184.528 53.416L184.957 53.6721C185.368 52.9835 185.572 52.2224 185.572 51.4H185.072H184.572C184.572 52.0496 184.413 52.6325 184.098 53.1599L184.528 53.416ZM185.072 51.4H185.572V45.8H185.072H184.572V51.4H185.072ZM185.072 45.8V46.3H186.688V45.8V45.3H185.072V45.8ZM200.713 57V56.5H193.497V57V57.5H200.713V57ZM193.497 57V56.5C192.781 56.5 192.149 56.3679 191.593 56.1133L191.385 56.568L191.177 57.0227C191.879 57.3441 192.655 57.5 193.497 57.5V57ZM191.385 56.568L191.593 56.1133C191.025 55.8538 190.538 55.4948 190.125 55.0344L189.753 55.368L189.38 55.7016C189.885 56.2652 190.485 56.7062 191.177 57.0227L191.385 56.568ZM189.753 55.368L190.129 55.0387C189.724 54.5755 189.408 54.0377 189.182 53.4205L188.713 53.592L188.243 53.7635C188.508 54.4903 188.886 55.1365 189.376 55.6973L189.753 55.368ZM188.713 53.592L189.183 53.4229C188.959 52.7983 188.845 52.1253 188.845 51.4H188.345H187.845C187.845 52.2321 187.976 53.0203 188.242 53.7611L188.713 53.592ZM188.345 51.4H188.845C188.845 50.6862 188.958 50.0246 189.182 49.4115L188.713 49.24L188.243 49.0685C187.976 49.7994 187.845 50.5778 187.845 51.4H188.345ZM188.713 49.24L189.183 49.4091C189.409 48.7813 189.725 48.2392 190.129 47.7773L189.753 47.448L189.376 47.1187C188.885 47.6808 188.507 48.3334 188.242 49.0709L188.713 49.24ZM189.753 47.448L190.128 47.7778C190.541 47.3078 191.028 46.9452 191.593 46.6867L191.385 46.232L191.177 45.7773C190.483 46.0948 189.882 46.5428 189.377 47.1182L189.753 47.448ZM191.385 46.232L191.593 46.6867C192.149 46.4321 192.781 46.3 193.497 46.3V45.8V45.3C192.655 45.3 191.879 45.4559 191.177 45.7773L191.385 46.232ZM193.497 45.8V46.3H200.713V45.8V45.3H193.497V45.8ZM200.713 45.8H200.213V47.4H200.713H201.213V45.8H200.713ZM200.713 47.4V46.9H193.497V47.4V47.9H200.713V47.4ZM193.497 47.4V46.9C192.675 46.9 191.939 47.1038 191.311 47.5305L191.593 47.944L191.874 48.3575C192.313 48.0589 192.846 47.9 193.497 47.9V47.4ZM191.593 47.944L191.313 47.5293C190.711 47.9349 190.249 48.4865 189.925 49.17L190.377 49.384L190.828 49.598C191.081 49.0655 191.429 48.6571 191.872 48.3587L191.593 47.944ZM190.377 49.384L189.925 49.17C189.602 49.851 189.445 50.597 189.445 51.4H189.945H190.445C190.445 50.731 190.575 50.133 190.828 49.598L190.377 49.384ZM189.945 51.4H189.445C189.445 52.203 189.602 52.949 189.925 53.63L190.377 53.416L190.828 53.202C190.575 52.667 190.445 52.069 190.445 51.4H189.945ZM190.377 53.416L189.926 53.6332C190.25 54.3048 190.711 54.8528 191.308 55.2668L191.593 54.856L191.878 54.4452C191.429 54.1339 191.079 53.7219 190.827 53.1989L190.377 53.416ZM191.593 54.856L191.311 55.2695C191.939 55.6962 192.675 55.9 193.497 55.9V55.4V54.9C192.846 54.9 192.313 54.7411 191.874 54.4425L191.593 54.856ZM193.497 55.4V55.9H200.713V55.4V54.9H193.497V55.4ZM200.713 55.4H200.213V57H200.713H201.213V55.4H200.713ZM208.721 57V56.5H207.121V57V57.5H208.721V57ZM207.121 57H207.621V47.4H207.121H206.621V57H207.121ZM207.121 47.4V46.9H201.457V47.4V47.9H207.121V47.4ZM201.457 47.4H201.957V45.8H201.457H200.957V47.4H201.457ZM201.457 45.8V46.3H214.385V45.8V45.3H201.457V45.8ZM214.385 45.8H213.885V47.4H214.385H214.885V45.8H214.385ZM214.385 47.4V46.9H208.721V47.4V47.9H214.385V47.4ZM208.721 47.4H208.221V57H208.721H209.221V47.4H208.721ZM217.491 57V56.5H215.891V57V57.5H217.491V57ZM215.891 57H216.391V45.8H215.891H215.391V57H215.891ZM215.891 45.8V46.3H217.491V45.8V45.3H215.891V45.8ZM217.491 45.8H216.991V57H217.491H217.991V45.8H217.491ZM233.548 51.4H233.048C233.048 52.1253 232.934 52.7983 232.71 53.4229L233.18 53.592L233.651 53.7611C233.917 53.0203 234.048 52.2321 234.048 51.4H233.548ZM233.18 53.592L232.71 53.4205C232.486 54.0353 232.166 54.5717 231.752 55.0344L232.124 55.368L232.497 55.7016C232.999 55.1403 233.384 54.4927 233.65 53.7635L233.18 53.592ZM232.124 55.368L231.748 55.0387C231.347 55.4966 230.866 55.8543 230.3 56.1133L230.508 56.568L230.716 57.0227C231.409 56.7057 232.005 56.2634 232.5 55.6973L232.124 55.368ZM230.508 56.568L230.3 56.1133C229.743 56.3683 229.116 56.5 228.412 56.5V57V57.5C229.244 57.5 230.015 57.3437 230.716 57.0227L230.508 56.568ZM228.412 57V56.5H224.684V57V57.5H228.412V57ZM224.684 57V56.5C223.968 56.5 223.337 56.3679 222.78 56.1133L222.572 56.568L222.364 57.0227C223.066 57.3441 223.843 57.5 224.684 57.5V57ZM222.572 56.568L222.78 56.1133C222.213 55.8538 221.725 55.4948 221.313 55.0344L220.94 55.368L220.568 55.7016C221.073 56.2652 221.673 56.7062 222.364 57.0227L222.572 56.568ZM220.94 55.368L221.316 55.0387C220.911 54.5755 220.595 54.0377 220.37 53.4205L219.9 53.592L219.43 53.7635C219.696 54.4903 220.073 55.1365 220.564 55.6973L220.94 55.368ZM219.9 53.592L220.371 53.4229C220.146 52.7983 220.032 52.1253 220.032 51.4H219.532H219.032C219.032 52.2321 219.163 53.0203 219.43 53.7611L219.9 53.592ZM219.532 51.4H220.032C220.032 50.6862 220.146 50.0246 220.37 49.4115L219.9 49.24L219.43 49.0685C219.164 49.7994 219.032 50.5778 219.032 51.4H219.532ZM219.9 49.24L220.371 49.4091C220.596 48.7813 220.912 48.2392 221.316 47.7773L220.94 47.448L220.564 47.1187C220.072 47.6808 219.695 48.3334 219.43 49.0709L219.9 49.24ZM220.94 47.448L221.316 47.7778C221.728 47.3078 222.215 46.9452 222.78 46.6867L222.572 46.232L222.364 45.7773C221.67 46.0948 221.069 46.5428 220.564 47.1182L220.94 47.448ZM222.572 46.232L222.78 46.6867C223.337 46.4321 223.968 46.3 224.684 46.3V45.8V45.3C223.843 45.3 223.066 45.4559 222.364 45.7773L222.572 46.232ZM224.684 45.8V46.3H228.412V45.8V45.3H224.684V45.8ZM228.412 45.8V46.3C229.116 46.3 229.743 46.4317 230.3 46.6867L230.508 46.232L230.716 45.7773C230.015 45.4563 229.244 45.3 228.412 45.3V45.8ZM230.508 46.232L230.3 46.6867C230.864 46.9447 231.344 47.306 231.745 47.7734L232.124 47.448L232.504 47.1226C232.008 46.5446 231.411 46.0953 230.716 45.7773L230.508 46.232ZM232.124 47.448L231.752 47.7816C232.165 48.243 232.485 48.7837 232.71 49.4091L233.18 49.24L233.651 49.0709C233.385 48.331 233.001 47.677 232.497 47.1144L232.124 47.448ZM233.18 49.24L232.71 49.4115C232.934 50.0246 233.048 50.6862 233.048 51.4H233.548H234.048C234.048 50.5778 233.917 49.7994 233.65 49.0685L233.18 49.24ZM231.948 51.4H232.448C232.448 50.597 232.291 49.851 231.968 49.17L231.516 49.384L231.064 49.598C231.318 50.133 231.448 50.731 231.448 51.4H231.948ZM231.516 49.384L231.971 49.1765C231.657 48.4872 231.191 47.9328 230.576 47.5267L230.3 47.944L230.025 48.3613C230.476 48.6592 230.821 49.0648 231.061 49.5915L231.516 49.384ZM230.3 47.944L230.585 47.5332C229.966 47.1037 229.234 46.9 228.412 46.9V47.4V47.9C229.063 47.9 229.589 48.0589 230.015 48.3548L230.3 47.944ZM228.412 47.4V46.9H224.684V47.4V47.9H228.412V47.4ZM224.684 47.4V46.9C223.862 46.9 223.127 47.1038 222.499 47.5305L222.78 47.944L223.061 48.3575C223.5 48.0589 224.034 47.9 224.684 47.9V47.4ZM222.78 47.944L222.501 47.5293C221.899 47.9349 221.436 48.4865 221.112 49.17L221.564 49.384L222.016 49.598C222.268 49.0655 222.616 48.6571 223.059 48.3587L222.78 47.944ZM221.564 49.384L221.112 49.17C220.79 49.851 220.632 50.597 220.632 51.4H221.132H221.632C221.632 50.731 221.763 50.133 222.016 49.598L221.564 49.384ZM221.132 51.4H220.632C220.632 52.203 220.79 52.949 221.112 53.63L221.564 53.416L222.016 53.202C221.763 52.667 221.632 52.069 221.632 51.4H221.132ZM221.564 53.416L221.114 53.6332C221.438 54.3048 221.898 54.8528 222.495 55.2668L222.78 54.856L223.065 54.4452C222.616 54.1339 222.267 53.7219 222.015 53.1989L221.564 53.416ZM222.78 54.856L222.499 55.2695C223.127 55.6962 223.862 55.9 224.684 55.9V55.4V54.9C224.034 54.9 223.5 54.7411 223.061 54.4425L222.78 54.856ZM224.684 55.4V55.9H228.412V55.4V54.9H224.684V55.4ZM228.412 55.4V55.9C229.234 55.9 229.966 55.6963 230.585 55.2668L230.3 54.856L230.015 54.4452C229.589 54.7411 229.063 54.9 228.412 54.9V55.4ZM230.3 54.856L230.581 55.2695C231.191 54.8549 231.655 54.304 231.97 53.6266L231.516 53.416L231.063 53.2054C230.823 53.7226 230.476 54.1318 230.019 54.4425L230.3 54.856ZM231.516 53.416L231.968 53.63C232.291 52.949 232.448 52.203 232.448 51.4H231.948H231.448C231.448 52.069 231.318 52.667 231.064 53.202L231.516 53.416ZM237.194 57V56.5H235.594V57V57.5H237.194V57ZM235.594 57H236.094V45.8H235.594H235.094V57H235.594ZM235.594 45.8V46.3H236.394V45.8V45.3H235.594V45.8ZM236.394 45.8V46.3C237.109 46.3 237.898 46.4372 238.766 46.7229L238.922 46.248L239.078 45.7731C238.132 45.4614 237.236 45.3 236.394 45.3V45.8ZM238.922 46.248L238.767 46.7234C239.646 47.0096 240.53 47.4149 241.419 47.9421L241.674 47.512L241.929 47.0819C240.983 46.5211 240.033 46.0837 239.077 45.7726L238.922 46.248ZM241.674 47.512L241.419 47.9421C242.304 48.467 243.139 49.0957 243.925 49.8294L244.266 49.464L244.607 49.0986C243.771 48.3177 242.879 47.6451 241.929 47.0819L241.674 47.512ZM244.266 49.464L243.93 49.834C244.719 50.5516 245.394 51.3499 245.957 52.2294L246.378 51.96L246.799 51.6906C246.188 50.7354 245.456 49.8698 244.602 49.094L244.266 49.464ZM246.378 51.96H246.878V45.8H246.378H245.878V51.96H246.378ZM246.378 45.8V46.3H247.978V45.8V45.3H246.378V45.8ZM247.978 45.8H247.478V57H247.978H248.478V45.8H247.978ZM247.978 57V56.5H246.378V57V57.5H247.978V57ZM246.378 57H246.878C246.878 55.9474 246.66 54.9385 246.226 53.9779L245.77 54.184L245.314 54.3901C245.691 55.2215 245.878 56.0899 245.878 57H246.378ZM245.77 54.184L246.228 53.9844C245.813 53.0299 245.257 52.1544 244.563 51.3591L244.186 51.688L243.809 52.0169C244.438 52.7362 244.938 53.5247 245.312 54.3836L245.77 54.184ZM244.186 51.688L244.565 51.3617C243.878 50.5646 243.114 49.8607 242.271 49.2509L241.978 49.656L241.685 50.0611C242.464 50.6246 243.171 51.2754 243.807 52.0143L244.186 51.688ZM241.978 49.656L242.277 49.2554C241.451 48.6382 240.603 48.1335 239.735 47.7438L239.53 48.2L239.325 48.6562C240.121 49.0132 240.905 49.4792 241.679 50.0566L241.978 49.656ZM239.53 48.2L239.74 47.746C238.874 47.3468 238.049 47.0844 237.267 46.9693L237.194 47.464L237.121 47.9587C237.789 48.0569 238.522 48.2852 239.32 48.654L239.53 48.2ZM237.194 47.464H236.694V57H237.194H237.694V47.464H237.194ZM2 21L1.64645 21.3536L36.6464 56.3536L37 56L37.3536 55.6464L2.35355 20.6464L2 21ZM37 56V56.5H49V56V55.5H37V56ZM49 56L49.3536 55.6464L14.3536 20.6464L14 21L13.6464 21.3536L48.6464 56.3536L49 56ZM14 21V20.5H2V21V21.5H14V21ZM3.5 41L3.14645 41.3536L17.6464 55.8536L18 55.5L18.3536 55.1464L3.85355 40.6464L3.5 41ZM18 55.5V56H28.5V55.5V55H18V55.5ZM28.5 55.5L28.8536 55.1464L14.3536 40.6464L14 41L13.6464 41.3536L28.1464 55.8536L28.5 55.5ZM14 41V40.5H3.5V41V41.5H14V41ZM69.5 56L69.8536 55.6465L57.8536 43.6465L57.5 44L57.1464 44.3536L69.1464 56.3536L69.5 56ZM63.5 24.5L63.0176 24.6316C63.3341 25.792 62.9029 27.1013 61.9273 28.4854C60.9591 29.8588 59.5167 31.215 58.0011 32.4213C56.4901 33.624 54.9293 34.6596 53.7441 35.3955C53.1521 35.7631 52.6552 36.0551 52.3069 36.2547C52.1329 36.3546 51.996 36.4313 51.9031 36.4828C51.8566 36.5086 51.8212 36.5281 51.7975 36.541C51.7857 36.5474 51.7769 36.5522 51.7711 36.5554C51.7682 36.557 51.766 36.5581 51.7647 36.5589C51.764 36.5592 51.7635 36.5595 51.7632 36.5596C51.7631 36.5597 51.763 36.5597 51.7629 36.5598C51.7629 36.5598 51.7629 36.5598 52 37C52.2371 37.4403 52.2372 37.4402 52.2374 37.4401C52.2375 37.44 52.2377 37.4399 52.238 37.4398C52.2385 37.4395 52.2392 37.4391 52.2401 37.4386C52.2419 37.4377 52.2444 37.4363 52.2478 37.4344C52.2545 37.4308 52.2642 37.4255 52.277 37.4186C52.3024 37.4046 52.3398 37.3841 52.3882 37.3573C52.4849 37.3036 52.6259 37.2246 52.8044 37.1222C53.1612 36.9176 53.6683 36.6197 54.2716 36.2451C55.4769 35.4967 57.0724 34.4385 58.6239 33.2037C60.1708 31.9725 61.6971 30.5475 62.7446 29.0615C63.7846 27.5862 64.4159 25.958 63.9824 24.3684L63.5 24.5ZM52 37L52.3536 36.6465L15.8536 0.146447L15.5 0.5L15.1464 0.853553L51.6464 37.3536L52 37ZM15.5 0.5V0H3V0.5V1H15.5V0.5ZM57.5 56V56.5H58.5V56V55.5H57.5V56ZM58.5 56V56.5H69.5V56V55.5H58.5V56ZM3 0.5L2.64645 0.853553L58.1464 56.3536L58.5 56L58.8536 55.6465L3.35355 0.146447L3 0.5ZM63.5 24.5L63.9824 24.3684C63.6009 22.9696 63.1202 21.6827 62.3041 20.5635C61.4823 19.4363 60.3414 18.5074 58.6827 17.7877C55.3998 16.3635 50.0501 15.7454 40.9859 16.0002L41 16.5L41.0141 16.9998C50.0731 16.7451 55.2234 17.377 58.2847 18.7051C59.798 19.3617 60.7903 20.1846 61.4961 21.1526C62.2077 22.1286 62.6491 23.2804 63.0176 24.6316L63.5 24.5ZM41 16.5L41.3536 16.1464L27.8536 2.64645L27.5 3L27.1464 3.35355L40.6464 16.8536L41 16.5ZM27.5 3C27.4984 3.5 27.4985 3.5 27.4985 3.5C27.4986 3.5 27.4987 3.5 27.4988 3.5C27.499 3.5 27.4993 3.5 27.4997 3.5C27.5006 3.5 27.5019 3.50001 27.5036 3.50001C27.507 3.50002 27.5122 3.50004 27.5191 3.50006C27.5329 3.5001 27.5538 3.50016 27.582 3.50024C27.6383 3.50039 27.724 3.50061 27.8412 3.50089C28.0756 3.50144 28.4361 3.50221 28.9409 3.50306C29.9504 3.50475 31.5367 3.50679 33.8443 3.50815C38.4594 3.51087 45.9597 3.51087 57.5005 3.5L57.5 3L57.4995 2.5C45.9591 2.51087 38.4594 2.51087 33.8449 2.50815C31.5376 2.50679 29.9516 2.50475 28.9426 2.50306C28.438 2.50221 28.0777 2.50144 27.8436 2.50089C27.7265 2.50062 27.6409 2.50039 27.5847 2.50024C27.5566 2.50016 27.5358 2.5001 27.522 2.50006C27.5151 2.50004 27.51 2.50003 27.5066 2.50002C27.5049 2.50001 27.5037 2.50001 27.5028 2.50001C27.5024 2.50001 27.5021 2.5 27.5019 2.5C27.5018 2.5 27.5017 2.5 27.5016 2.5C27.5016 2.5 27.5016 2.5 27.5 3ZM57.5 3L57.5005 3.5C68.7456 3.48941 77.1343 12.8407 78.5016 22.5615C79.1827 27.4035 78.1127 32.2961 74.8129 36.1401C71.513 39.9842 65.9286 42.8421 57.4612 43.5015L57.5 44L57.5388 44.4985C66.1931 43.8246 72.0549 40.8882 75.5717 36.7914C79.0887 32.6944 80.2061 27.4997 79.4919 22.4222C78.0687 12.3043 69.3355 2.48886 57.4995 2.5L57.5 3Z" fill="white"/>
</svg>
