<svg width="80" height="57" viewBox="0 0 80 57" fill="none" xmlns="http://www.w3.org/2000/svg">
<path d="M37 56L2 21H14L49 56H37Z" fill="#051B66"/>
<path d="M18.5 55.5L4 41H14.5L29 55.5H18.5Z" fill="#051B66"/>
<path d="M57.3592 44.1081L69.3282 56H58.3566L3 1H15.4677L51.8734 37.1712C51.8734 37.1712 64.8398 30.2342 63.3437 24.7838C61.8476 19.3333 58.9782 16.3509 40.9018 16.8559L27.4367 3.47748C27.4367 3.47748 34.3377 3.49901 57.3592 3.47748C80.3807 3.45594 91.5143 41.4655 57.3592 44.1081Z" fill="#051B66"/>
<path d="M2 21V20.5H0.792893L1.64645 21.3536L2 21ZM37 56L36.6464 56.3536L36.7929 56.5H37V56ZM49 56V56.5H50.2071L49.3536 55.6464L49 56ZM14 21L14.3536 20.6464L14.2071 20.5H14V21ZM4 41V40.5H2.79289L3.64645 41.3536L4 41ZM18.5 55.5L18.1464 55.8536L18.2929 56H18.5V55.5ZM29 55.5V56H30.2071L29.3536 55.1464L29 55.5ZM14.5 41L14.8536 40.6464L14.7071 40.5H14.5V41ZM69.3282 56V56.5L69.6806 55.6453L69.3282 56ZM57.3592 44.1081L57.3206 43.6096L57.0068 44.4628L57.3592 44.1081ZM51.8734 37.1712L51.521 37.5259L52.1093 37.612L51.8734 37.1712ZM15.4677 1L15.8201 0.645306L15.4677 0.5V1ZM3 1V0.5L2.64759 1.35469L3 1ZM40.9018 16.8559L40.5494 17.2105L40.9158 17.3557L40.9018 16.8559ZM27.4367 3.47748L27.4383 2.97748L27.0843 3.83217L27.4367 3.47748ZM57.3592 3.47748L57.3597 3.97748L57.3592 3.47748ZM2 21L1.64645 21.3536L36.6464 56.3536L37 56L37.3536 55.6464L2.35355 20.6464L2 21ZM37 56V56.5H49V56V55.5H37V56ZM49 56L49.3536 55.6464L14.3536 20.6464L14 21L13.6464 21.3536L48.6464 56.3536L49 56ZM14 21V20.5H2V21V21.5H14V21ZM4 41L3.64645 41.3536L18.1464 55.8536L18.5 55.5L18.8536 55.1464L4.35355 40.6464L4 41ZM18.5 55.5V56H29V55.5V55H18.5V55.5ZM29 55.5L29.3536 55.1464L14.8536 40.6464L14.5 41L14.1464 41.3536L28.6464 55.8536L29 55.5ZM14.5 41V40.5H4V41V41.5H14.5V41ZM69.3282 56L69.6806 55.6453L57.7116 43.7534L57.3592 44.1081L57.0068 44.4628L68.9758 56.3547L69.3282 56ZM63.3437 24.7838L62.8615 24.9161C63.1763 26.0628 62.7479 27.358 61.7749 28.7294C60.8095 30.09 59.3712 31.4338 57.8595 32.6292C56.3524 33.821 54.7957 34.8473 53.6135 35.5766C53.0231 35.9408 52.5275 36.2301 52.1801 36.428C52.0065 36.5269 51.87 36.603 51.7773 36.654C51.731 36.6796 51.6956 36.6989 51.6721 36.7117C51.6603 36.7181 51.6514 36.7228 51.6456 36.726C51.6427 36.7275 51.6406 36.7287 51.6393 36.7294C51.6386 36.7297 51.6381 36.73 51.6378 36.7302C51.6377 36.7302 51.6376 36.7303 51.6375 36.7303C51.6375 36.7303 51.6376 36.7303 51.8734 37.1712C52.1093 37.612 52.1094 37.612 52.1096 37.6119C52.1097 37.6118 52.1099 37.6117 52.1102 37.6116C52.1107 37.6113 52.1114 37.6109 52.1123 37.6104C52.1141 37.6095 52.1167 37.6081 52.12 37.6063C52.1267 37.6027 52.1364 37.5974 52.1491 37.5906C52.1745 37.5768 52.2117 37.5564 52.26 37.5298C52.3565 37.4766 52.4972 37.3983 52.6752 37.2969C53.0311 37.0941 53.5368 36.7989 54.1386 36.4277C55.3408 35.686 56.9323 34.6373 58.4798 33.4136C60.0227 32.1935 61.5454 30.781 62.5904 29.308C63.6279 27.8458 64.2592 26.23 63.8259 24.6514L63.3437 24.7838ZM51.8734 37.1712L52.2258 36.8165L15.8201 0.645306L15.4677 1L15.1153 1.35469L51.521 37.5259L51.8734 37.1712ZM15.4677 1V0.5H3V1V1.5H15.4677V1ZM57.3592 56V56.5H58.3566V56V55.5H57.3592V56ZM58.3566 56V56.5H69.3282V56V55.5H58.3566V56ZM3 1L2.64759 1.35469L58.0042 56.3547L58.3566 56L58.709 55.6453L3.35241 0.645306L3 1ZM63.3437 24.7838L63.8259 24.6514C63.4452 23.2647 62.9655 21.9887 62.1511 20.8788C61.3309 19.7611 60.1926 18.8405 58.5383 18.1274C55.2641 16.7161 49.9285 16.1035 40.8879 16.356L40.9018 16.8559L40.9158 17.3557C49.9515 17.1033 55.0888 17.7295 58.1424 19.0457C59.652 19.6964 60.6414 20.5118 61.3449 21.4704C62.0541 22.4369 62.4941 23.5776 62.8615 24.9161L63.3437 24.7838ZM40.9018 16.8559L41.2542 16.5012L27.7891 3.12278L27.4367 3.47748L27.0843 3.83217L40.5494 17.2105L40.9018 16.8559ZM27.4367 3.47748C27.4352 3.97747 27.4352 3.97747 27.4352 3.97747C27.4353 3.97748 27.4354 3.97748 27.4355 3.97748C27.4357 3.97748 27.436 3.97748 27.4364 3.97748C27.4373 3.97748 27.4386 3.97749 27.4403 3.97749C27.4437 3.9775 27.4489 3.97752 27.4558 3.97754C27.4695 3.97758 27.4904 3.97764 27.5185 3.97771C27.5747 3.97786 27.6601 3.97809 27.777 3.97836C28.0108 3.97891 28.3704 3.97966 28.8739 3.9805C29.8807 3.98219 31.463 3.98421 33.7646 3.98555C38.3678 3.98824 45.8487 3.98824 57.3597 3.97748L57.3592 3.47748L57.3587 2.97748C45.8482 2.98824 38.3678 2.98824 33.7652 2.98555C31.4639 2.98421 29.882 2.98219 28.8755 2.98051C28.3723 2.97967 28.0129 2.97891 27.7794 2.97836C27.6626 2.97809 27.5773 2.97787 27.5212 2.97772C27.4931 2.97764 27.4724 2.97758 27.4587 2.97754C27.4518 2.97752 27.4467 2.97751 27.4433 2.97749C27.4416 2.97749 27.4404 2.97749 27.4395 2.97748C27.4391 2.97748 27.4388 2.97748 27.4386 2.97748C27.4385 2.97748 27.4384 2.97748 27.4383 2.97748C27.4383 2.97748 27.4383 2.97748 27.4367 3.47748ZM57.3592 3.47748L57.3597 3.97748C68.5775 3.96698 76.9421 13.2347 78.3054 22.8638C78.9844 27.6601 77.9177 32.5067 74.6275 36.3148C71.3366 40.1236 65.7669 42.9561 57.3206 43.6096L57.3592 44.1081L57.3978 44.6066C66.0291 43.9388 71.8758 41.0291 75.3841 36.9686C78.893 32.9074 80.0082 27.7574 79.2955 22.7237C77.8754 12.6927 69.1624 2.96644 57.3587 2.97748L57.3592 3.47748Z" fill="black"/>
</svg>
